<?xml version="1.0" encoding="UTF-8" standalone="no"?>
<!DOCTYPE svg PUBLIC "-//W3C//DTD SVG 1.1//EN" "http://www.w3.org/Graphics/SVG/1.1/DTD/svg11.dtd">
<!-- Generated by Microsoft Visio, SVG Export AXI write timing.svg Page-1 -->
<svg xmlns="http://www.w3.org/2000/svg" xmlns:xlink="http://www.w3.org/1999/xlink" xmlns:ev="http://www.w3.org/2001/xml-events"
		xmlns:v="http://schemas.microsoft.com/visio/2003/SVGExtensions/" width="6.19792in" height="4.82465in"
		viewBox="0 0 446.25 347.375" xml:space="preserve" color-interpolation-filters="sRGB" class="st10">
	<v:documentProperties v:langID="1033" v:viewMarkup="false"/>

	<style type="text/css">
	<![CDATA[
		.st1 {stroke:#000000;stroke-linecap:round;stroke-linejoin:round;stroke-width:1}
		.st2 {fill:none;stroke:none;stroke-width:0.25}
		.st3 {fill:#000000;font-family:Calibri;font-size:1.00001em}
		.st4 {stroke:#000000;stroke-dasharray:1.5,1.5;stroke-linecap:round;stroke-linejoin:round;stroke-width:0.5}
		.st5 {stroke:#000000;stroke-linecap:round;stroke-linejoin:round;stroke-width:0.75}
		.st6 {fill:#000000;font-family:Calibri;font-size:0.833336em}
		.st7 {stroke:#000000;stroke-linecap:round;stroke-linejoin:round;stroke-width:1.25}
		.st8 {fill:#000000;font-family:Calibri;font-size:1.00001em;font-weight:bold}
		.st9 {font-size:1em}
		.st10 {fill:none;fill-rule:evenodd;font-size:12px;overflow:visible;stroke-linecap:square;stroke-miterlimit:3}
	]]>
	</style>

	<g v:mID="0" v:index="1" v:groupContext="foregroundPage">
		<title>Page-1</title>
		<v:pageProperties v:drawingScale="1" v:pageScale="1" v:drawingUnits="19" v:shadowOffsetX="9" v:shadowOffsetY="-9"/>
		<g id="shape596-1" v:mID="596" v:groupContext="shape" transform="translate(159.438,-333.25)">
			<title>Sheet.596</title>
			<path d="M0 347.37 L13.5 347.37 L13.5 333.87 L49.5 333.87 L49.5 347.37" class="st1"/>
		</g>
		<g id="shape598-4" v:mID="598" v:groupContext="shape" transform="translate(208.938,-333.25)">
			<title>Sheet.598</title>
			<path d="M0 347.37 L36 347.37 L36 333.87 L72 333.87 L72 347.37" class="st1"/>
		</g>
		<g id="shape599-7" v:mID="599" v:groupContext="shape" transform="translate(280.938,-333.25)">
			<title>Sheet.599</title>
			<path d="M0 347.37 L36 347.37 L36 333.87 L72 333.87 L72 347.37" class="st1"/>
		</g>
		<g id="shape600-10" v:mID="600" v:groupContext="shape" transform="translate(352.938,-333.25)">
			<title>Sheet.600</title>
			<path d="M0 347.37 L36 347.37 L36 333.87 L72 333.87 L72 347.37" class="st1"/>
		</g>
		<g id="shape601-13" v:mID="601" v:groupContext="shape" transform="translate(424.938,-333.25)">
			<title>Sheet.601</title>
			<path d="M0 347.37 L18 347.37" class="st1"/>
		</g>
		<g id="shape603-16" v:mID="603" v:groupContext="shape" transform="translate(87.4375,-333.25)">
			<title>Sheet.603</title>
			<desc>AXI_CLK</desc>
			<v:textBlock v:margins="rect(4,0,4,0)"/>
			<v:textRect cx="33.75" cy="340.687" width="67.5" height="13.375"/>
			<rect x="0" y="334" width="67.5" height="13.375" class="st2"/>
			<text x="27.65" y="343.69" class="st3" v:langID="1033"><v:paragraph v:spLine="-1" v:horizAlign="2"/><v:tabList/>AXI_CLK</text>		</g>
		<g id="shape604-19" v:mID="604" v:groupContext="shape" transform="translate(159.438,-306.25)">
			<title>Sheet.604</title>
			<path d="M0 333.87 L85.5 333.87 L90 347.37 L229.5 347.37 L234 333.87 L283.5 333.87" class="st1"/>
		</g>
		<g id="shape605-22" v:mID="605" v:groupContext="shape" transform="translate(159.438,375) scale(1,-1)">
			<title>Sheet.605</title>
			<path d="M0 333.87 L85.5 333.87 L90 347.37 L229.5 347.37 L234 333.87 L283.5 333.87" class="st1"/>
		</g>
		<g id="shape606-25" v:mID="606" v:groupContext="shape" transform="translate(70.5625,-306.375)">
			<title>Sheet.606</title>
			<desc>AWADDR[31:0]</desc>
			<v:textBlock v:margins="rect(4,0,4,0)"/>
			<v:textRect cx="42.1875" cy="340.687" width="84.38" height="13.375"/>
			<rect x="0" y="334" width="84.375" height="13.375" class="st2"/>
			<text x="9.71" y="343.69" class="st3" v:langID="1033"><v:paragraph v:spLine="-1" v:horizAlign="2"/><v:tabList/>AWADDR[31:0]</text>		</g>
		<g id="shape607-28" v:mID="607" v:groupContext="shape" transform="translate(159.438,-279.125)">
			<title>Sheet.607</title>
			<path d="M0 347.37 L85.5 347.37 L85.5 333.87 L229.5 333.87 L229.5 347.37 L283.5 347.37" class="st1"/>
		</g>
		<g id="shape608-31" v:mID="608" v:groupContext="shape" transform="translate(87.4375,-279.375)">
			<title>Sheet.608</title>
			<desc>AWVALID</desc>
			<v:textBlock v:margins="rect(4,0,4,0)"/>
			<v:textRect cx="33.75" cy="340.687" width="67.5" height="13.375"/>
			<rect x="0" y="334" width="67.5" height="13.375" class="st2"/>
			<text x="20.68" y="343.69" class="st3" v:langID="1033"><v:paragraph v:spLine="-1" v:horizAlign="2"/><v:tabList/>AWVALID</text>		</g>
		<g id="shape609-34" v:mID="609" v:groupContext="shape" transform="translate(159.438,-252.25)">
			<title>Sheet.609</title>
			<path d="M0 347.37 L157.5 347.37 L157.5 333.87 L229.5 333.87 L229.5 347.37 L285.75 347.37" class="st1"/>
		</g>
		<g id="shape610-37" v:mID="610" v:groupContext="shape" transform="translate(87.4375,-252.375)">
			<title>Sheet.610</title>
			<desc>AWREADY</desc>
			<v:textBlock v:margins="rect(4,0,4,0)"/>
			<v:textRect cx="33.75" cy="340.687" width="67.5" height="13.375"/>
			<rect x="0" y="334" width="67.5" height="13.375" class="st2"/>
			<text x="17.33" y="343.69" class="st3" v:langID="1033"><v:paragraph v:spLine="-1" v:horizAlign="2"/><v:tabList/>AWREADY</text>		</g>
		<g id="shape611-40" v:mID="611" v:groupContext="shape" transform="translate(592.313,14.125) rotate(90)">
			<title>Sheet.611</title>
			<path d="M0 347.37 L333 347.37" class="st4"/>
		</g>
		<g id="shape612-43" v:mID="612" v:groupContext="shape" transform="translate(574.486,137.475) rotate(108.435)">
			<title>Sheet.612</title>
			<path d="M0 347.37 L14.23 347.37" class="st5"/>
		</g>
		<g id="shape613-46" v:mID="613" v:groupContext="shape" transform="translate(569.986,137.475) rotate(108.435)">
			<title>Sheet.613</title>
			<path d="M0 347.37 L14.23 347.37" class="st5"/>
		</g>
		<g id="shape614-49" v:mID="614" v:groupContext="shape" transform="translate(565.486,137.475) rotate(108.435)">
			<title>Sheet.614</title>
			<path d="M0 347.37 L14.23 347.37" class="st5"/>
		</g>
		<g id="shape615-52" v:mID="615" v:groupContext="shape" transform="translate(560.986,137.475) rotate(108.435)">
			<title>Sheet.615</title>
			<path d="M0 347.37 L14.23 347.37" class="st5"/>
		</g>
		<g id="shape616-55" v:mID="616" v:groupContext="shape" transform="translate(556.486,137.475) rotate(108.435)">
			<title>Sheet.616</title>
			<path d="M0 347.37 L14.23 347.37" class="st5"/>
		</g>
		<g id="shape617-58" v:mID="617" v:groupContext="shape" transform="translate(551.986,137.475) rotate(108.435)">
			<title>Sheet.617</title>
			<path d="M0 347.37 L14.23 347.37" class="st5"/>
		</g>
		<g id="shape618-61" v:mID="618" v:groupContext="shape" transform="translate(547.486,137.475) rotate(108.435)">
			<title>Sheet.618</title>
			<path d="M0 347.37 L14.23 347.37" class="st5"/>
		</g>
		<g id="shape619-64" v:mID="619" v:groupContext="shape" transform="translate(542.986,137.475) rotate(108.435)">
			<title>Sheet.619</title>
			<path d="M0 347.37 L14.23 347.37" class="st5"/>
		</g>
		<g id="shape620-67" v:mID="620" v:groupContext="shape" transform="translate(538.486,137.475) rotate(108.435)">
			<title>Sheet.620</title>
			<path d="M0 347.37 L14.23 347.37" class="st5"/>
		</g>
		<g id="shape621-70" v:mID="621" v:groupContext="shape" transform="translate(533.986,137.475) rotate(108.435)">
			<title>Sheet.621</title>
			<path d="M0 347.37 L14.23 347.37" class="st5"/>
		</g>
		<g id="shape622-73" v:mID="622" v:groupContext="shape" transform="translate(529.486,137.475) rotate(108.435)">
			<title>Sheet.622</title>
			<path d="M0 347.37 L14.23 347.37" class="st5"/>
		</g>
		<g id="shape623-76" v:mID="623" v:groupContext="shape" transform="translate(524.986,137.475) rotate(108.435)">
			<title>Sheet.623</title>
			<path d="M0 347.37 L14.23 347.37" class="st5"/>
		</g>
		<g id="shape624-79" v:mID="624" v:groupContext="shape" transform="translate(520.486,137.475) rotate(108.435)">
			<title>Sheet.624</title>
			<path d="M0 347.37 L14.23 347.37" class="st5"/>
		</g>
		<g id="shape625-82" v:mID="625" v:groupContext="shape" transform="translate(515.986,137.475) rotate(108.435)">
			<title>Sheet.625</title>
			<path d="M0 347.37 L14.23 347.37" class="st5"/>
		</g>
		<g id="shape626-85" v:mID="626" v:groupContext="shape" transform="translate(511.486,137.475) rotate(108.435)">
			<title>Sheet.626</title>
			<path d="M0 347.37 L14.23 347.37" class="st5"/>
		</g>
		<g id="shape627-88" v:mID="627" v:groupContext="shape" transform="translate(506.986,137.475) rotate(108.435)">
			<title>Sheet.627</title>
			<path d="M0 347.37 L14.23 347.37" class="st5"/>
		</g>
		<g id="shape628-91" v:mID="628" v:groupContext="shape" transform="translate(502.486,137.475) rotate(108.435)">
			<title>Sheet.628</title>
			<path d="M0 347.37 L14.23 347.37" class="st5"/>
		</g>
		<g id="shape629-94" v:mID="629" v:groupContext="shape" transform="translate(497.986,137.475) rotate(108.435)">
			<title>Sheet.629</title>
			<path d="M0 347.37 L14.23 347.37" class="st5"/>
		</g>
		<g id="shape630-97" v:mID="630" v:groupContext="shape" transform="translate(493.486,137.475) rotate(108.435)">
			<title>Sheet.630</title>
			<path d="M0 347.37 L14.23 347.37" class="st5"/>
		</g>
		<g id="shape641-100" v:mID="641" v:groupContext="shape" transform="translate(772.486,137.475) rotate(108.435)">
			<title>Sheet.641</title>
			<path d="M0 347.37 L14.23 347.37" class="st5"/>
		</g>
		<g id="shape642-103" v:mID="642" v:groupContext="shape" transform="translate(767.986,137.475) rotate(108.435)">
			<title>Sheet.642</title>
			<path d="M0 347.37 L14.23 347.37" class="st5"/>
		</g>
		<g id="shape643-106" v:mID="643" v:groupContext="shape" transform="translate(763.486,137.475) rotate(108.435)">
			<title>Sheet.643</title>
			<path d="M0 347.37 L14.23 347.37" class="st5"/>
		</g>
		<g id="shape644-109" v:mID="644" v:groupContext="shape" transform="translate(758.986,137.475) rotate(108.435)">
			<title>Sheet.644</title>
			<path d="M0 347.37 L14.23 347.37" class="st5"/>
		</g>
		<g id="shape645-112" v:mID="645" v:groupContext="shape" transform="translate(754.486,137.475) rotate(108.435)">
			<title>Sheet.645</title>
			<path d="M0 347.37 L14.23 347.37" class="st5"/>
		</g>
		<g id="shape646-115" v:mID="646" v:groupContext="shape" transform="translate(749.986,137.475) rotate(108.435)">
			<title>Sheet.646</title>
			<path d="M0 347.37 L14.23 347.37" class="st5"/>
		</g>
		<g id="shape647-118" v:mID="647" v:groupContext="shape" transform="translate(745.486,137.475) rotate(108.435)">
			<title>Sheet.647</title>
			<path d="M0 347.37 L14.23 347.37" class="st5"/>
		</g>
		<g id="shape648-121" v:mID="648" v:groupContext="shape" transform="translate(740.986,137.475) rotate(108.435)">
			<title>Sheet.648</title>
			<path d="M0 347.37 L14.23 347.37" class="st5"/>
		</g>
		<g id="shape649-124" v:mID="649" v:groupContext="shape" transform="translate(736.486,137.475) rotate(108.435)">
			<title>Sheet.649</title>
			<path d="M0 347.37 L14.23 347.37" class="st5"/>
		</g>
		<g id="shape650-127" v:mID="650" v:groupContext="shape" transform="translate(731.986,137.475) rotate(108.435)">
			<title>Sheet.650</title>
			<path d="M0 347.37 L14.23 347.37" class="st5"/>
		</g>
		<g id="shape651-130" v:mID="651" v:groupContext="shape" transform="translate(727.486,137.475) rotate(108.435)">
			<title>Sheet.651</title>
			<path d="M0 347.37 L14.23 347.37" class="st5"/>
		</g>
		<g id="shape652-133" v:mID="652" v:groupContext="shape" transform="translate(159.438,-67.75)">
			<title>Sheet.652</title>
			<path d="M0 347.37 L157.5 347.37 L157.5 333.87 L229.5 333.87 L229.5 347.37 L285.75 347.37" class="st1"/>
		</g>
		<g id="shape653-136" v:mID="653" v:groupContext="shape" transform="translate(160,-40.75)">
			<title>Sheet.653</title>
			<path d="M0 333.87 L157.5 333.87 L229.5 333.87 L229.5 347.37 L285.75 347.37" class="st1"/>
		</g>
		<g id="shape654-139" v:mID="654" v:groupContext="shape" transform="translate(159.438,-13.75)">
			<title>Sheet.654</title>
			<path d="M0 333.87 L157.5 333.87 L162 347.37 L229.5 347.37 L234 333.87 L283.5 333.87" class="st1"/>
		</g>
		<g id="shape655-142" v:mID="655" v:groupContext="shape" transform="translate(159.438,667.5) scale(1,-1)">
			<title>Sheet.655</title>
			<path d="M0 333.87 L157.5 333.87 L162 347.37 L229.5 347.37 L234 333.87 L283.5 333.87" class="st1"/>
		</g>
		<g id="shape656-145" v:mID="656" v:groupContext="shape" transform="translate(70.5625,-13.875)">
			<title>Sheet.656</title>
			<desc>BRESP[1:0]</desc>
			<v:textBlock v:margins="rect(4,0,4,0)"/>
			<v:textRect cx="42.1875" cy="340.687" width="84.38" height="13.375"/>
			<rect x="0" y="334" width="84.375" height="13.375" class="st2"/>
			<text x="31.03" y="343.69" class="st3" v:langID="1033"><v:paragraph v:spLine="-1" v:horizAlign="2"/><v:tabList/>BRESP[1:0]</text>		</g>
		<g id="shape657-148" v:mID="657" v:groupContext="shape" transform="translate(646.486,429.975) rotate(108.435)">
			<title>Sheet.657</title>
			<path d="M0 347.37 L14.23 347.37" class="st5"/>
		</g>
		<g id="shape658-151" v:mID="658" v:groupContext="shape" transform="translate(641.986,429.975) rotate(108.435)">
			<title>Sheet.658</title>
			<path d="M0 347.37 L14.23 347.37" class="st5"/>
		</g>
		<g id="shape659-154" v:mID="659" v:groupContext="shape" transform="translate(637.486,429.975) rotate(108.435)">
			<title>Sheet.659</title>
			<path d="M0 347.37 L14.23 347.37" class="st5"/>
		</g>
		<g id="shape660-157" v:mID="660" v:groupContext="shape" transform="translate(632.986,429.975) rotate(108.435)">
			<title>Sheet.660</title>
			<path d="M0 347.37 L14.23 347.37" class="st5"/>
		</g>
		<g id="shape661-160" v:mID="661" v:groupContext="shape" transform="translate(628.486,429.975) rotate(108.435)">
			<title>Sheet.661</title>
			<path d="M0 347.37 L14.23 347.37" class="st5"/>
		</g>
		<g id="shape662-163" v:mID="662" v:groupContext="shape" transform="translate(623.986,429.975) rotate(108.435)">
			<title>Sheet.662</title>
			<path d="M0 347.37 L14.23 347.37" class="st5"/>
		</g>
		<g id="shape663-166" v:mID="663" v:groupContext="shape" transform="translate(619.486,429.975) rotate(108.435)">
			<title>Sheet.663</title>
			<path d="M0 347.37 L14.23 347.37" class="st5"/>
		</g>
		<g id="shape664-169" v:mID="664" v:groupContext="shape" transform="translate(614.986,429.975) rotate(108.435)">
			<title>Sheet.664</title>
			<path d="M0 347.37 L14.23 347.37" class="st5"/>
		</g>
		<g id="shape665-172" v:mID="665" v:groupContext="shape" transform="translate(610.486,429.975) rotate(108.435)">
			<title>Sheet.665</title>
			<path d="M0 347.37 L14.23 347.37" class="st5"/>
		</g>
		<g id="shape666-175" v:mID="666" v:groupContext="shape" transform="translate(605.986,429.975) rotate(108.435)">
			<title>Sheet.666</title>
			<path d="M0 347.37 L14.23 347.37" class="st5"/>
		</g>
		<g id="shape667-178" v:mID="667" v:groupContext="shape" transform="translate(601.486,429.975) rotate(108.435)">
			<title>Sheet.667</title>
			<path d="M0 347.37 L14.23 347.37" class="st5"/>
		</g>
		<g id="shape668-181" v:mID="668" v:groupContext="shape" transform="translate(596.986,429.975) rotate(108.435)">
			<title>Sheet.668</title>
			<path d="M0 347.37 L14.23 347.37" class="st5"/>
		</g>
		<g id="shape669-184" v:mID="669" v:groupContext="shape" transform="translate(592.486,429.975) rotate(108.435)">
			<title>Sheet.669</title>
			<path d="M0 347.37 L14.23 347.37" class="st5"/>
		</g>
		<g id="shape670-187" v:mID="670" v:groupContext="shape" transform="translate(587.986,429.975) rotate(108.435)">
			<title>Sheet.670</title>
			<path d="M0 347.37 L14.23 347.37" class="st5"/>
		</g>
		<g id="shape671-190" v:mID="671" v:groupContext="shape" transform="translate(583.486,429.975) rotate(108.435)">
			<title>Sheet.671</title>
			<path d="M0 347.37 L14.23 347.37" class="st5"/>
		</g>
		<g id="shape672-193" v:mID="672" v:groupContext="shape" transform="translate(578.986,429.975) rotate(108.435)">
			<title>Sheet.672</title>
			<path d="M0 347.37 L14.23 347.37" class="st5"/>
		</g>
		<g id="shape673-196" v:mID="673" v:groupContext="shape" transform="translate(574.486,429.975) rotate(108.435)">
			<title>Sheet.673</title>
			<path d="M0 347.37 L14.23 347.37" class="st5"/>
		</g>
		<g id="shape674-199" v:mID="674" v:groupContext="shape" transform="translate(569.986,429.975) rotate(108.435)">
			<title>Sheet.674</title>
			<path d="M0 347.37 L14.23 347.37" class="st5"/>
		</g>
		<g id="shape675-202" v:mID="675" v:groupContext="shape" transform="translate(565.486,429.975) rotate(108.435)">
			<title>Sheet.675</title>
			<path d="M0 347.37 L14.23 347.37" class="st5"/>
		</g>
		<g id="shape676-205" v:mID="676" v:groupContext="shape" transform="translate(772.486,429.975) rotate(108.435)">
			<title>Sheet.676</title>
			<path d="M0 347.37 L14.23 347.37" class="st5"/>
		</g>
		<g id="shape677-208" v:mID="677" v:groupContext="shape" transform="translate(767.986,429.975) rotate(108.435)">
			<title>Sheet.677</title>
			<path d="M0 347.37 L14.23 347.37" class="st5"/>
		</g>
		<g id="shape678-211" v:mID="678" v:groupContext="shape" transform="translate(763.486,429.975) rotate(108.435)">
			<title>Sheet.678</title>
			<path d="M0 347.37 L14.23 347.37" class="st5"/>
		</g>
		<g id="shape679-214" v:mID="679" v:groupContext="shape" transform="translate(758.986,429.975) rotate(108.435)">
			<title>Sheet.679</title>
			<path d="M0 347.37 L14.23 347.37" class="st5"/>
		</g>
		<g id="shape680-217" v:mID="680" v:groupContext="shape" transform="translate(754.486,429.975) rotate(108.435)">
			<title>Sheet.680</title>
			<path d="M0 347.37 L14.23 347.37" class="st5"/>
		</g>
		<g id="shape681-220" v:mID="681" v:groupContext="shape" transform="translate(749.986,429.975) rotate(108.435)">
			<title>Sheet.681</title>
			<path d="M0 347.37 L14.23 347.37" class="st5"/>
		</g>
		<g id="shape682-223" v:mID="682" v:groupContext="shape" transform="translate(745.486,429.975) rotate(108.435)">
			<title>Sheet.682</title>
			<path d="M0 347.37 L14.23 347.37" class="st5"/>
		</g>
		<g id="shape683-226" v:mID="683" v:groupContext="shape" transform="translate(740.986,429.975) rotate(108.435)">
			<title>Sheet.683</title>
			<path d="M0 347.37 L14.23 347.37" class="st5"/>
		</g>
		<g id="shape684-229" v:mID="684" v:groupContext="shape" transform="translate(736.486,429.975) rotate(108.435)">
			<title>Sheet.684</title>
			<path d="M0 347.37 L14.23 347.37" class="st5"/>
		</g>
		<g id="shape685-232" v:mID="685" v:groupContext="shape" transform="translate(731.986,429.975) rotate(108.435)">
			<title>Sheet.685</title>
			<path d="M0 347.37 L14.23 347.37" class="st5"/>
		</g>
		<g id="shape686-235" v:mID="686" v:groupContext="shape" transform="translate(727.486,429.975) rotate(108.435)">
			<title>Sheet.686</title>
			<path d="M0 347.37 L14.23 347.37" class="st5"/>
		</g>
		<g id="shape687-238" v:mID="687" v:groupContext="shape" transform="translate(560.986,429.975) rotate(108.435)">
			<title>Sheet.687</title>
			<path d="M0 347.37 L14.23 347.37" class="st5"/>
		</g>
		<g id="shape688-241" v:mID="688" v:groupContext="shape" transform="translate(556.486,429.975) rotate(108.435)">
			<title>Sheet.688</title>
			<path d="M0 347.37 L14.23 347.37" class="st5"/>
		</g>
		<g id="shape689-244" v:mID="689" v:groupContext="shape" transform="translate(551.986,429.975) rotate(108.435)">
			<title>Sheet.689</title>
			<path d="M0 347.37 L14.23 347.37" class="st5"/>
		</g>
		<g id="shape690-247" v:mID="690" v:groupContext="shape" transform="translate(547.486,429.975) rotate(108.435)">
			<title>Sheet.690</title>
			<path d="M0 347.37 L14.23 347.37" class="st5"/>
		</g>
		<g id="shape691-250" v:mID="691" v:groupContext="shape" transform="translate(542.986,429.975) rotate(108.435)">
			<title>Sheet.691</title>
			<path d="M0 347.37 L14.23 347.37" class="st5"/>
		</g>
		<g id="shape692-253" v:mID="692" v:groupContext="shape" transform="translate(538.486,429.975) rotate(108.435)">
			<title>Sheet.692</title>
			<path d="M0 347.37 L14.23 347.37" class="st5"/>
		</g>
		<g id="shape693-256" v:mID="693" v:groupContext="shape" transform="translate(533.986,429.975) rotate(108.435)">
			<title>Sheet.693</title>
			<path d="M0 347.37 L14.23 347.37" class="st5"/>
		</g>
		<g id="shape694-259" v:mID="694" v:groupContext="shape" transform="translate(529.486,429.975) rotate(108.435)">
			<title>Sheet.694</title>
			<path d="M0 347.37 L14.23 347.37" class="st5"/>
		</g>
		<g id="shape695-262" v:mID="695" v:groupContext="shape" transform="translate(524.986,429.975) rotate(108.435)">
			<title>Sheet.695</title>
			<path d="M0 347.37 L14.23 347.37" class="st5"/>
		</g>
		<g id="shape696-265" v:mID="696" v:groupContext="shape" transform="translate(520.486,429.975) rotate(108.435)">
			<title>Sheet.696</title>
			<path d="M0 347.37 L14.23 347.37" class="st5"/>
		</g>
		<g id="shape697-268" v:mID="697" v:groupContext="shape" transform="translate(515.986,429.975) rotate(108.435)">
			<title>Sheet.697</title>
			<path d="M0 347.37 L14.23 347.37" class="st5"/>
		</g>
		<g id="shape698-271" v:mID="698" v:groupContext="shape" transform="translate(511.486,429.975) rotate(108.435)">
			<title>Sheet.698</title>
			<path d="M0 347.37 L14.23 347.37" class="st5"/>
		</g>
		<g id="shape699-274" v:mID="699" v:groupContext="shape" transform="translate(506.986,429.975) rotate(108.435)">
			<title>Sheet.699</title>
			<path d="M0 347.37 L14.23 347.37" class="st5"/>
		</g>
		<g id="shape700-277" v:mID="700" v:groupContext="shape" transform="translate(502.486,429.975) rotate(108.435)">
			<title>Sheet.700</title>
			<path d="M0 347.37 L14.23 347.37" class="st5"/>
		</g>
		<g id="shape701-280" v:mID="701" v:groupContext="shape" transform="translate(497.986,429.975) rotate(108.435)">
			<title>Sheet.701</title>
			<path d="M0 347.37 L14.23 347.37" class="st5"/>
		</g>
		<g id="shape702-283" v:mID="702" v:groupContext="shape" transform="translate(493.486,429.975) rotate(108.435)">
			<title>Sheet.702</title>
			<path d="M0 347.37 L14.23 347.37" class="st5"/>
		</g>
		<g id="shape703-286" v:mID="703" v:groupContext="shape" transform="translate(70.5625,-40.875)">
			<title>Sheet.703</title>
			<desc>BREADY</desc>
			<v:textBlock v:margins="rect(4,0,4,0)"/>
			<v:textRect cx="42.1875" cy="340.687" width="84.38" height="13.375"/>
			<rect x="0" y="334" width="84.375" height="13.375" class="st2"/>
			<text x="45.3" y="343.69" class="st3" v:langID="1033"><v:paragraph v:spLine="-1" v:horizAlign="2"/><v:tabList/>BREADY</text>		</g>
		<g id="shape704-289" v:mID="704" v:groupContext="shape" transform="translate(70.5625,-67.75)">
			<title>Sheet.704</title>
			<desc>BVALID</desc>
			<v:textBlock v:margins="rect(4,0,4,0)"/>
			<v:textRect cx="42.1875" cy="340.687" width="84.38" height="13.375"/>
			<rect x="0" y="334" width="84.375" height="13.375" class="st2"/>
			<text x="48.64" y="343.69" class="st3" v:langID="1033"><v:paragraph v:spLine="-1" v:horizAlign="2"/><v:tabList/>BVALID</text>		</g>
		<g id="shape707-292" v:mID="707" v:groupContext="shape" transform="translate(159.438,-202.75)">
			<title>Sheet.707</title>
			<path d="M0 333.87 L85.5 333.87 L90 347.37 L229.5 347.37 L234 333.87 L283.5 333.87" class="st1"/>
		</g>
		<g id="shape708-295" v:mID="708" v:groupContext="shape" transform="translate(159.438,478.5) scale(1,-1)">
			<title>Sheet.708</title>
			<path d="M0 333.87 L85.5 333.87 L90 347.37 L229.5 347.37 L234 333.87 L283.5 333.87" class="st1"/>
		</g>
		<g id="shape709-298" v:mID="709" v:groupContext="shape" transform="translate(70.5625,-202.875)">
			<title>Sheet.709</title>
			<desc>WDDATA[31:0]</desc>
			<v:textBlock v:margins="rect(4,0,4,0)"/>
			<v:textRect cx="42.1875" cy="340.687" width="84.38" height="13.375"/>
			<rect x="0" y="334" width="84.375" height="13.375" class="st2"/>
			<text x="10.38" y="343.69" class="st3" v:langID="1033"><v:paragraph v:spLine="-1" v:horizAlign="2"/><v:tabList/>WDDATA[31:0]</text>		</g>
		<g id="shape710-301" v:mID="710" v:groupContext="shape" transform="translate(159.438,-148.625)">
			<title>Sheet.710</title>
			<path d="M0 347.37 L85.5 347.37 L85.5 333.87 L229.5 333.87 L229.5 347.37 L283.5 347.37" class="st1"/>
		</g>
		<g id="shape711-304" v:mID="711" v:groupContext="shape" transform="translate(87.4375,-148.875)">
			<title>Sheet.711</title>
			<desc>WDVALID</desc>
			<v:textBlock v:margins="rect(4,0,4,0)"/>
			<v:textRect cx="33.75" cy="340.687" width="67.5" height="13.375"/>
			<rect x="0" y="334" width="67.5" height="13.375" class="st2"/>
			<text x="20.24" y="343.69" class="st3" v:langID="1033"><v:paragraph v:spLine="-1" v:horizAlign="2"/><v:tabList/>WDVALID</text>		</g>
		<g id="shape712-307" v:mID="712" v:groupContext="shape" transform="translate(159.438,-121.75)">
			<title>Sheet.712</title>
			<path d="M0 347.37 L157.5 347.37 L157.5 333.87 L229.5 333.87 L229.5 347.37 L285.75 347.37" class="st1"/>
		</g>
		<g id="shape713-310" v:mID="713" v:groupContext="shape" transform="translate(87.4375,-121.75)">
			<title>Sheet.713</title>
			<desc>WDREADY</desc>
			<v:textBlock v:margins="rect(4,0,4,0)"/>
			<v:textRect cx="33.75" cy="340.687" width="67.5" height="13.375"/>
			<rect x="0" y="334" width="67.5" height="13.375" class="st2"/>
			<text x="16.89" y="343.69" class="st3" v:langID="1033"><v:paragraph v:spLine="-1" v:horizAlign="2"/><v:tabList/>WDREADY</text>		</g>
		<g id="shape714-313" v:mID="714" v:groupContext="shape" transform="translate(574.486,240.975) rotate(108.435)">
			<title>Sheet.714</title>
			<path d="M0 347.37 L14.23 347.37" class="st5"/>
		</g>
		<g id="shape715-316" v:mID="715" v:groupContext="shape" transform="translate(569.986,240.975) rotate(108.435)">
			<title>Sheet.715</title>
			<path d="M0 347.37 L14.23 347.37" class="st5"/>
		</g>
		<g id="shape716-319" v:mID="716" v:groupContext="shape" transform="translate(565.486,240.975) rotate(108.435)">
			<title>Sheet.716</title>
			<path d="M0 347.37 L14.23 347.37" class="st5"/>
		</g>
		<g id="shape717-322" v:mID="717" v:groupContext="shape" transform="translate(560.986,240.975) rotate(108.435)">
			<title>Sheet.717</title>
			<path d="M0 347.37 L14.23 347.37" class="st5"/>
		</g>
		<g id="shape718-325" v:mID="718" v:groupContext="shape" transform="translate(556.486,240.975) rotate(108.435)">
			<title>Sheet.718</title>
			<path d="M0 347.37 L14.23 347.37" class="st5"/>
		</g>
		<g id="shape719-328" v:mID="719" v:groupContext="shape" transform="translate(551.986,240.975) rotate(108.435)">
			<title>Sheet.719</title>
			<path d="M0 347.37 L14.23 347.37" class="st5"/>
		</g>
		<g id="shape720-331" v:mID="720" v:groupContext="shape" transform="translate(547.486,240.975) rotate(108.435)">
			<title>Sheet.720</title>
			<path d="M0 347.37 L14.23 347.37" class="st5"/>
		</g>
		<g id="shape721-334" v:mID="721" v:groupContext="shape" transform="translate(542.986,240.975) rotate(108.435)">
			<title>Sheet.721</title>
			<path d="M0 347.37 L14.23 347.37" class="st5"/>
		</g>
		<g id="shape722-337" v:mID="722" v:groupContext="shape" transform="translate(538.486,240.975) rotate(108.435)">
			<title>Sheet.722</title>
			<path d="M0 347.37 L14.23 347.37" class="st5"/>
		</g>
		<g id="shape723-340" v:mID="723" v:groupContext="shape" transform="translate(533.986,240.975) rotate(108.435)">
			<title>Sheet.723</title>
			<path d="M0 347.37 L14.23 347.37" class="st5"/>
		</g>
		<g id="shape724-343" v:mID="724" v:groupContext="shape" transform="translate(529.486,240.975) rotate(108.435)">
			<title>Sheet.724</title>
			<path d="M0 347.37 L14.23 347.37" class="st5"/>
		</g>
		<g id="shape725-346" v:mID="725" v:groupContext="shape" transform="translate(524.986,240.975) rotate(108.435)">
			<title>Sheet.725</title>
			<path d="M0 347.37 L14.23 347.37" class="st5"/>
		</g>
		<g id="shape726-349" v:mID="726" v:groupContext="shape" transform="translate(520.486,240.975) rotate(108.435)">
			<title>Sheet.726</title>
			<path d="M0 347.37 L14.23 347.37" class="st5"/>
		</g>
		<g id="shape727-352" v:mID="727" v:groupContext="shape" transform="translate(515.986,240.975) rotate(108.435)">
			<title>Sheet.727</title>
			<path d="M0 347.37 L14.23 347.37" class="st5"/>
		</g>
		<g id="shape728-355" v:mID="728" v:groupContext="shape" transform="translate(511.486,240.975) rotate(108.435)">
			<title>Sheet.728</title>
			<path d="M0 347.37 L14.23 347.37" class="st5"/>
		</g>
		<g id="shape729-358" v:mID="729" v:groupContext="shape" transform="translate(506.986,240.975) rotate(108.435)">
			<title>Sheet.729</title>
			<path d="M0 347.37 L14.23 347.37" class="st5"/>
		</g>
		<g id="shape730-361" v:mID="730" v:groupContext="shape" transform="translate(502.486,240.975) rotate(108.435)">
			<title>Sheet.730</title>
			<path d="M0 347.37 L14.23 347.37" class="st5"/>
		</g>
		<g id="shape731-364" v:mID="731" v:groupContext="shape" transform="translate(497.986,240.975) rotate(108.435)">
			<title>Sheet.731</title>
			<path d="M0 347.37 L14.23 347.37" class="st5"/>
		</g>
		<g id="shape732-367" v:mID="732" v:groupContext="shape" transform="translate(493.486,240.975) rotate(108.435)">
			<title>Sheet.732</title>
			<path d="M0 347.37 L14.23 347.37" class="st5"/>
		</g>
		<g id="shape733-370" v:mID="733" v:groupContext="shape" transform="translate(772.486,240.975) rotate(108.435)">
			<title>Sheet.733</title>
			<path d="M0 347.37 L14.23 347.37" class="st5"/>
		</g>
		<g id="shape734-373" v:mID="734" v:groupContext="shape" transform="translate(767.986,240.975) rotate(108.435)">
			<title>Sheet.734</title>
			<path d="M0 347.37 L14.23 347.37" class="st5"/>
		</g>
		<g id="shape735-376" v:mID="735" v:groupContext="shape" transform="translate(763.486,240.975) rotate(108.435)">
			<title>Sheet.735</title>
			<path d="M0 347.37 L14.23 347.37" class="st5"/>
		</g>
		<g id="shape736-379" v:mID="736" v:groupContext="shape" transform="translate(758.986,240.975) rotate(108.435)">
			<title>Sheet.736</title>
			<path d="M0 347.37 L14.23 347.37" class="st5"/>
		</g>
		<g id="shape737-382" v:mID="737" v:groupContext="shape" transform="translate(754.486,240.975) rotate(108.435)">
			<title>Sheet.737</title>
			<path d="M0 347.37 L14.23 347.37" class="st5"/>
		</g>
		<g id="shape738-385" v:mID="738" v:groupContext="shape" transform="translate(749.986,240.975) rotate(108.435)">
			<title>Sheet.738</title>
			<path d="M0 347.37 L14.23 347.37" class="st5"/>
		</g>
		<g id="shape739-388" v:mID="739" v:groupContext="shape" transform="translate(745.486,240.975) rotate(108.435)">
			<title>Sheet.739</title>
			<path d="M0 347.37 L14.23 347.37" class="st5"/>
		</g>
		<g id="shape740-391" v:mID="740" v:groupContext="shape" transform="translate(740.986,240.975) rotate(108.435)">
			<title>Sheet.740</title>
			<path d="M0 347.37 L14.23 347.37" class="st5"/>
		</g>
		<g id="shape741-394" v:mID="741" v:groupContext="shape" transform="translate(736.486,240.975) rotate(108.435)">
			<title>Sheet.741</title>
			<path d="M0 347.37 L14.23 347.37" class="st5"/>
		</g>
		<g id="shape742-397" v:mID="742" v:groupContext="shape" transform="translate(731.986,240.975) rotate(108.435)">
			<title>Sheet.742</title>
			<path d="M0 347.37 L14.23 347.37" class="st5"/>
		</g>
		<g id="shape743-400" v:mID="743" v:groupContext="shape" transform="translate(727.486,240.975) rotate(108.435)">
			<title>Sheet.743</title>
			<path d="M0 347.37 L14.23 347.37" class="st5"/>
		</g>
		<g id="shape744-403" v:mID="744" v:groupContext="shape" transform="translate(250.563,-202.812)">
			<title>Sheet.744</title>
			<desc>A5A5F0F0</desc>
			<v:textBlock v:margins="rect(4,0,4,0)"/>
			<v:textRect cx="69.1875" cy="340.688" width="138.38" height="13.375"/>
			<rect x="0" y="334" width="138.375" height="13.375" class="st2"/>
			<text x="48.67" y="343.19" class="st6" v:langID="1033"><v:paragraph v:spLine="-1" v:horizAlign="1"/><v:tabList/>A5A5F0F0</text>		</g>
		<g id="shape745-406" v:mID="745" v:groupContext="shape" transform="translate(422.688,-202.75)">
			<title>Sheet.745</title>
			<path d="M0 347.37 L18 347.37" class="st1"/>
		</g>
		<g id="shape746-409" v:mID="746" v:groupContext="shape" transform="translate(157.188,-175.75)">
			<title>Sheet.746</title>
			<path d="M0 333.87 L85.5 333.87 L90 347.37 L229.5 347.37 L234 333.87 L283.5 333.87" class="st1"/>
		</g>
		<g id="shape747-412" v:mID="747" v:groupContext="shape" transform="translate(157.188,505.5) scale(1,-1)">
			<title>Sheet.747</title>
			<path d="M0 333.87 L85.5 333.87 L90 347.37 L229.5 347.37 L234 333.87 L283.5 333.87" class="st1"/>
		</g>
		<g id="shape748-415" v:mID="748" v:groupContext="shape" transform="translate(70.5625,-175.75)">
			<title>Sheet.748</title>
			<desc>WDSTRB[1:0]</desc>
			<v:textBlock v:margins="rect(4,0,4,0)"/>
			<v:textRect cx="42.1875" cy="340.687" width="84.38" height="13.375"/>
			<rect x="0" y="334" width="84.375" height="13.375" class="st2"/>
			<text x="19.18" y="343.69" class="st3" v:langID="1033"><v:paragraph v:spLine="-1" v:horizAlign="2"/><v:tabList/>WDSTRB[1:0]</text>		</g>
		<g id="shape749-418" v:mID="749" v:groupContext="shape" transform="translate(572.236,267.975) rotate(108.435)">
			<title>Sheet.749</title>
			<path d="M0 347.37 L14.23 347.37" class="st5"/>
		</g>
		<g id="shape750-421" v:mID="750" v:groupContext="shape" transform="translate(567.736,267.975) rotate(108.435)">
			<title>Sheet.750</title>
			<path d="M0 347.37 L14.23 347.37" class="st5"/>
		</g>
		<g id="shape751-424" v:mID="751" v:groupContext="shape" transform="translate(563.236,267.975) rotate(108.435)">
			<title>Sheet.751</title>
			<path d="M0 347.37 L14.23 347.37" class="st5"/>
		</g>
		<g id="shape752-427" v:mID="752" v:groupContext="shape" transform="translate(558.736,267.975) rotate(108.435)">
			<title>Sheet.752</title>
			<path d="M0 347.37 L14.23 347.37" class="st5"/>
		</g>
		<g id="shape753-430" v:mID="753" v:groupContext="shape" transform="translate(554.236,267.975) rotate(108.435)">
			<title>Sheet.753</title>
			<path d="M0 347.37 L14.23 347.37" class="st5"/>
		</g>
		<g id="shape754-433" v:mID="754" v:groupContext="shape" transform="translate(549.736,267.975) rotate(108.435)">
			<title>Sheet.754</title>
			<path d="M0 347.37 L14.23 347.37" class="st5"/>
		</g>
		<g id="shape755-436" v:mID="755" v:groupContext="shape" transform="translate(545.236,267.975) rotate(108.435)">
			<title>Sheet.755</title>
			<path d="M0 347.37 L14.23 347.37" class="st5"/>
		</g>
		<g id="shape756-439" v:mID="756" v:groupContext="shape" transform="translate(540.736,267.975) rotate(108.435)">
			<title>Sheet.756</title>
			<path d="M0 347.37 L14.23 347.37" class="st5"/>
		</g>
		<g id="shape757-442" v:mID="757" v:groupContext="shape" transform="translate(536.236,267.975) rotate(108.435)">
			<title>Sheet.757</title>
			<path d="M0 347.37 L14.23 347.37" class="st5"/>
		</g>
		<g id="shape758-445" v:mID="758" v:groupContext="shape" transform="translate(531.736,267.975) rotate(108.435)">
			<title>Sheet.758</title>
			<path d="M0 347.37 L14.23 347.37" class="st5"/>
		</g>
		<g id="shape759-448" v:mID="759" v:groupContext="shape" transform="translate(527.236,267.975) rotate(108.435)">
			<title>Sheet.759</title>
			<path d="M0 347.37 L14.23 347.37" class="st5"/>
		</g>
		<g id="shape760-451" v:mID="760" v:groupContext="shape" transform="translate(522.736,267.975) rotate(108.435)">
			<title>Sheet.760</title>
			<path d="M0 347.37 L14.23 347.37" class="st5"/>
		</g>
		<g id="shape761-454" v:mID="761" v:groupContext="shape" transform="translate(518.236,267.975) rotate(108.435)">
			<title>Sheet.761</title>
			<path d="M0 347.37 L14.23 347.37" class="st5"/>
		</g>
		<g id="shape762-457" v:mID="762" v:groupContext="shape" transform="translate(513.736,267.975) rotate(108.435)">
			<title>Sheet.762</title>
			<path d="M0 347.37 L14.23 347.37" class="st5"/>
		</g>
		<g id="shape763-460" v:mID="763" v:groupContext="shape" transform="translate(509.236,267.975) rotate(108.435)">
			<title>Sheet.763</title>
			<path d="M0 347.37 L14.23 347.37" class="st5"/>
		</g>
		<g id="shape764-463" v:mID="764" v:groupContext="shape" transform="translate(504.736,267.975) rotate(108.435)">
			<title>Sheet.764</title>
			<path d="M0 347.37 L14.23 347.37" class="st5"/>
		</g>
		<g id="shape765-466" v:mID="765" v:groupContext="shape" transform="translate(500.236,267.975) rotate(108.435)">
			<title>Sheet.765</title>
			<path d="M0 347.37 L14.23 347.37" class="st5"/>
		</g>
		<g id="shape766-469" v:mID="766" v:groupContext="shape" transform="translate(495.736,267.975) rotate(108.435)">
			<title>Sheet.766</title>
			<path d="M0 347.37 L14.23 347.37" class="st5"/>
		</g>
		<g id="shape767-472" v:mID="767" v:groupContext="shape" transform="translate(491.236,267.975) rotate(108.435)">
			<title>Sheet.767</title>
			<path d="M0 347.37 L14.23 347.37" class="st5"/>
		</g>
		<g id="shape768-475" v:mID="768" v:groupContext="shape" transform="translate(770.236,267.975) rotate(108.435)">
			<title>Sheet.768</title>
			<path d="M0 347.37 L14.23 347.37" class="st5"/>
		</g>
		<g id="shape769-478" v:mID="769" v:groupContext="shape" transform="translate(765.736,267.975) rotate(108.435)">
			<title>Sheet.769</title>
			<path d="M0 347.37 L14.23 347.37" class="st5"/>
		</g>
		<g id="shape770-481" v:mID="770" v:groupContext="shape" transform="translate(761.236,267.975) rotate(108.435)">
			<title>Sheet.770</title>
			<path d="M0 347.37 L14.23 347.37" class="st5"/>
		</g>
		<g id="shape771-484" v:mID="771" v:groupContext="shape" transform="translate(756.736,267.975) rotate(108.435)">
			<title>Sheet.771</title>
			<path d="M0 347.37 L14.23 347.37" class="st5"/>
		</g>
		<g id="shape772-487" v:mID="772" v:groupContext="shape" transform="translate(752.236,267.975) rotate(108.435)">
			<title>Sheet.772</title>
			<path d="M0 347.37 L14.23 347.37" class="st5"/>
		</g>
		<g id="shape773-490" v:mID="773" v:groupContext="shape" transform="translate(747.736,267.975) rotate(108.435)">
			<title>Sheet.773</title>
			<path d="M0 347.37 L14.23 347.37" class="st5"/>
		</g>
		<g id="shape774-493" v:mID="774" v:groupContext="shape" transform="translate(743.236,267.975) rotate(108.435)">
			<title>Sheet.774</title>
			<path d="M0 347.37 L14.23 347.37" class="st5"/>
		</g>
		<g id="shape775-496" v:mID="775" v:groupContext="shape" transform="translate(738.736,267.975) rotate(108.435)">
			<title>Sheet.775</title>
			<path d="M0 347.37 L14.23 347.37" class="st5"/>
		</g>
		<g id="shape776-499" v:mID="776" v:groupContext="shape" transform="translate(734.236,267.975) rotate(108.435)">
			<title>Sheet.776</title>
			<path d="M0 347.37 L14.23 347.37" class="st5"/>
		</g>
		<g id="shape777-502" v:mID="777" v:groupContext="shape" transform="translate(729.736,267.975) rotate(108.435)">
			<title>Sheet.777</title>
			<path d="M0 347.37 L14.23 347.37" class="st5"/>
		</g>
		<g id="shape778-505" v:mID="778" v:groupContext="shape" transform="translate(725.236,267.975) rotate(108.435)">
			<title>Sheet.778</title>
			<path d="M0 347.37 L14.23 347.37" class="st5"/>
		</g>
		<g id="shape779-508" v:mID="779" v:groupContext="shape" transform="translate(248.313,-175.812)">
			<title>Sheet.779</title>
			<desc>F</desc>
			<v:textBlock v:margins="rect(4,0,4,0)"/>
			<v:textRect cx="69.1875" cy="340.688" width="138.38" height="13.375"/>
			<rect x="0" y="334" width="138.375" height="13.375" class="st2"/>
			<text x="66.89" y="343.19" class="st6" v:langID="1033"><v:paragraph v:spLine="-1" v:horizAlign="1"/><v:tabList/>F</text>		</g>
		<g id="shape780-511" v:mID="780" v:groupContext="shape" transform="translate(57.625,-252.25)">
			<title>Sheet.780</title>
			<path d="M9 252.87 A4.5 9.44514 -180 0 0 4.5 262.32 L4.5 290.66 A5.83315 10.7129 0 0 1 -0 300.1 A4.56309 8.38038 0 0
						 1 4.5 309.55 L4.5 337.88 A4.08265 9.10473 -180 0 0 9 347.33" class="st7"/>
		</g>
		<g id="shape781-514" v:mID="781" v:groupContext="shape" transform="translate(1.9375,-286)">
			<title>Sheet.781</title>
			<desc>Address Write Channel</desc>
			<v:textBlock v:margins="rect(4,0,4,0)"/>
			<v:textRect cx="29.25" cy="333.938" width="58.5" height="26.875"/>
			<rect x="0" y="320.5" width="58.5" height="26.875" class="st2"/>
			<text x="9.23" y="324.94" class="st8" v:langID="1033"><v:paragraph v:spLine="-1" v:horizAlign="1"/><v:tabList/>Address<v:newlineChar/><tspan
						x="15.11" dy="1em" class="st9">Write<v:newlineChar/></tspan><tspan x="8.96" dy="1em" class="st9">Channel</tspan></text>		</g>
		<g id="shape782-519" v:mID="782" v:groupContext="shape" transform="translate(55.9375,-121.75)">
			<title>Sheet.782</title>
			<path d="M9 252.87 A4.5 9.44514 -180 0 0 4.5 262.32 L4.5 290.66 A5.83315 10.7129 0 0 1 -0 300.1 A4.56309 8.38038 0 0
						 1 4.5 309.55 L4.5 337.88 A4.08265 9.10473 -180 0 0 9 347.33" class="st7"/>
		</g>
		<g id="shape783-522" v:mID="783" v:groupContext="shape" transform="translate(0.25,-155.5)">
			<title>Sheet.783</title>
			<desc>Write Data Channel</desc>
			<v:textBlock v:margins="rect(4,0,4,0)"/>
			<v:textRect cx="29.25" cy="333.938" width="58.5" height="26.875"/>
			<rect x="0" y="320.5" width="58.5" height="26.875" class="st2"/>
			<text x="15.11" y="324.94" class="st8" v:langID="1033"><v:paragraph v:spLine="-1" v:horizAlign="1"/><v:tabList/>Write<v:newlineChar/><tspan
						x="17.46" dy="1em" class="st9">Data<v:newlineChar/></tspan><tspan x="8.96" dy="1em" class="st9">Channel</tspan></text>		</g>
		<g id="shape784-527" v:mID="784" v:groupContext="shape" transform="translate(55.9375,-13.75)">
			<title>Sheet.784</title>
			<path d="M9 279.87 A4.5 6.74653 -180 0 0 4.5 286.62 L4.5 306.86 A5.83315 7.65207 0 0 1 -0 313.61 A4.56309 5.98598 0 0
						 1 4.5 320.35 L4.5 340.59 A4.08265 6.50338 -180 0 0 9 347.34" class="st7"/>
		</g>
		<g id="shape785-530" v:mID="785" v:groupContext="shape" transform="translate(0.25,-34.0625)">
			<title>Sheet.785</title>
			<desc>Write Response Channel</desc>
			<v:textBlock v:margins="rect(4,0,4,0)"/>
			<v:textRect cx="29.25" cy="333.938" width="58.5" height="26.875"/>
			<rect x="0" y="320.5" width="58.5" height="26.875" class="st2"/>
			<text x="15.11" y="324.94" class="st8" v:langID="1033"><v:paragraph v:spLine="-1" v:horizAlign="1"/><v:tabList/>Write<v:newlineChar/><tspan
						x="5.38" dy="1em" class="st9">Response<v:newlineChar/></tspan><tspan x="8.96" dy="1em" class="st9">Channel</tspan></text>		</g>
		<g id="shape705-535" v:mID="705" v:groupContext="shape" transform="translate(250.563,-306.312)">
			<title>Sheet.705</title>
			<desc>F8000000</desc>
			<v:textBlock v:margins="rect(4,0,4,0)"/>
			<v:textRect cx="69.1875" cy="340.687" width="138.38" height="13.375"/>
			<rect x="0" y="334" width="138.375" height="13.375" class="st2"/>
			<text x="49.15" y="343.19" class="st6" v:langID="1033"><v:paragraph v:spLine="-1" v:horizAlign="1"/><v:tabList/>F8000000</text>		</g>
		<g id="shape789-538" v:mID="789" v:groupContext="shape" transform="translate(321.438,-13.75)">
			<title>Sheet.789</title>
			<desc>00</desc>
			<v:textBlock v:margins="rect(4,0,4,0)"/>
			<v:textRect cx="33.75" cy="340.687" width="67.5" height="13.375"/>
			<rect x="0" y="334" width="67.5" height="13.375" class="st2"/>
			<text x="28.68" y="343.19" class="st6" v:langID="1033"><v:paragraph v:spLine="-1" v:horizAlign="1"/><v:tabList/>00</text>		</g>
	</g>
</svg>
