<?xml version="1.0" encoding="UTF-8" standalone="no"?>
<!DOCTYPE svg PUBLIC "-//W3C//DTD SVG 1.1//EN" "http://www.w3.org/Graphics/SVG/1.1/DTD/svg11.dtd">
<!-- Generated by Microsoft Visio, SVG Export AXILite flow.svg Page-1 -->
<svg xmlns="http://www.w3.org/2000/svg" xmlns:xlink="http://www.w3.org/1999/xlink" xmlns:ev="http://www.w3.org/2001/xml-events"
		xmlns:v="http://schemas.microsoft.com/visio/2003/SVGExtensions/" width="6.55208in" height="2.70833in"
		viewBox="0 0 471.75 195" xml:space="preserve" color-interpolation-filters="sRGB" class="st19">
	<v:documentProperties v:langID="1033" v:viewMarkup="false"/>

	<style type="text/css">
	<![CDATA[
		.st1 {fill:#ffffff;stroke:#000000;stroke-linecap:round;stroke-linejoin:round;stroke-width:0.75}
		.st2 {fill:#dbeef3;stroke:#000000;stroke-linecap:round;stroke-linejoin:round;stroke-width:0.75}
		.st3 {fill:#000000;font-family:Calibri;font-size:0.833336em}
		.st4 {fill:#ebf1df;stroke:#000000;stroke-linecap:round;stroke-linejoin:round;stroke-width:0.75}
		.st5 {fill:#fcebdd;stroke:#000000;stroke-linecap:round;stroke-linejoin:round;stroke-width:0.75}
		.st6 {fill:#f2dcda;stroke:#000000;stroke-linecap:round;stroke-linejoin:round;stroke-width:0.75}
		.st7 {marker-end:url(#mrkr4-87);stroke:#000000;stroke-linecap:round;stroke-linejoin:round;stroke-width:0.75}
		.st8 {fill:#000000;fill-opacity:1;stroke:#000000;stroke-opacity:1;stroke-width:0.29411764705882}
		.st9 {fill:#8ccdec;stroke:#000000;stroke-width:0.75}
		.st10 {fill:none;stroke:none;stroke-width:0.25}
		.st11 {fill:#000000;font-family:Calibri;font-size:1.00001em;font-weight:bold}
		.st12 {fill:#f9dec8;stroke:#000000;stroke-width:0.75}
		.st13 {fill:#000000;font-family:Calibri;font-size:1.00001em}
		.st14 {fill:#000000;stroke:#000000;stroke-linecap:round;stroke-linejoin:round;stroke-width:0.75}
		.st15 {fill:#ff0000;stroke:#ff0000;stroke-linecap:round;stroke-linejoin:round;stroke-width:0.75}
		.st16 {stroke:#000000;stroke-linecap:round;stroke-linejoin:round;stroke-width:1.25}
		.st17 {font-size:1em}
		.st18 {fill:#ffffa4;stroke:#000000;stroke-linecap:round;stroke-linejoin:round;stroke-width:0.75}
		.st19 {fill:none;fill-rule:evenodd;font-size:12px;overflow:visible;stroke-linecap:square;stroke-miterlimit:3}
	]]>
	</style>

	<defs id="Markers">
		<g id="lend4">
			<path d="M 2 1 L 0 0 L 2 -1 L 2 1 " style="stroke:none"/>
		</g>
		<marker id="mrkr4-87" class="st8" v:arrowType="4" v:arrowSize="1" v:setback="6.32" refX="-6.32" orient="auto"
				markerUnits="strokeWidth" overflow="visible">
			<use xlink:href="#lend4" transform="scale(-3.4,-3.4) "/>
		</marker>
	</defs>
	<g v:mID="0" v:index="1" v:groupContext="foregroundPage">
		<title>Page-1</title>
		<v:pageProperties v:drawingScale="1" v:pageScale="1" v:drawingUnits="19" v:shadowOffsetX="9" v:shadowOffsetY="-9"/>
		<g id="shape142-1" v:mID="142" v:groupContext="shape" transform="translate(85.125,-90.75)">
			<title>Rectangle.142</title>
			<v:userDefs>
				<v:ud v:nameU="visVersion" v:val="VT0(15):26"/>
			</v:userDefs>
			<rect x="0" y="181.5" width="27" height="13.5" class="st1"/>
		</g>
		<g id="shape143-3" v:mID="143" v:groupContext="shape" transform="translate(112.125,-90.75)">
			<title>Rectangle.143</title>
			<desc>A0</desc>
			<v:userDefs>
				<v:ud v:nameU="visVersion" v:val="VT0(15):26"/>
			</v:userDefs>
			<v:textBlock v:margins="rect(4,0,4,0)"/>
			<v:textRect cx="13.5" cy="188.25" width="27" height="13.5"/>
			<rect x="0" y="181.5" width="27" height="13.5" class="st2"/>
			<text x="8.07" y="191.25" class="st3" v:langID="1033"><v:paragraph v:horizAlign="1"/><v:tabList/>A0</text>		</g>
		<g id="shape144-6" v:mID="144" v:groupContext="shape" transform="translate(139.125,-90.75)">
			<title>Rectangle.144</title>
			<v:userDefs>
				<v:ud v:nameU="visVersion" v:val="VT0(15):26"/>
			</v:userDefs>
			<rect x="0" y="181.5" width="27" height="13.5" class="st1"/>
		</g>
		<g id="shape151-8" v:mID="151" v:groupContext="shape" transform="translate(247.125,-90.75)">
			<title>Rectangle.151</title>
			<v:userDefs>
				<v:ud v:nameU="visVersion" v:val="VT0(15):26"/>
			</v:userDefs>
			<rect x="0" y="181.5" width="27" height="13.5" class="st1"/>
		</g>
		<g id="shape152-10" v:mID="152" v:groupContext="shape" transform="translate(274.125,-90.75)">
			<title>Rectangle.152</title>
			<v:userDefs>
				<v:ud v:nameU="visVersion" v:val="VT0(15):26"/>
			</v:userDefs>
			<rect x="0" y="181.5" width="27" height="13.5" class="st1"/>
		</g>
		<g id="shape153-12" v:mID="153" v:groupContext="shape" transform="translate(301.125,-90.75)">
			<title>Rectangle.153</title>
			<v:userDefs>
				<v:ud v:nameU="visVersion" v:val="VT0(15):26"/>
			</v:userDefs>
			<rect x="0" y="181.5" width="27" height="13.5" class="st1"/>
		</g>
		<g id="shape158-14" v:mID="158" v:groupContext="shape" transform="translate(85.125,-59.25)">
			<title>Rectangle.158</title>
			<v:userDefs>
				<v:ud v:nameU="visVersion" v:val="VT0(15):26"/>
			</v:userDefs>
			<rect x="0" y="181.5" width="27" height="13.5" class="st1"/>
		</g>
		<g id="shape159-16" v:mID="159" v:groupContext="shape" transform="translate(112.125,-59.25)">
			<title>Rectangle.159</title>
			<v:userDefs>
				<v:ud v:nameU="visVersion" v:val="VT0(15):26"/>
			</v:userDefs>
			<rect x="0" y="181.5" width="27" height="13.5" class="st1"/>
		</g>
		<g id="shape160-18" v:mID="160" v:groupContext="shape" transform="translate(139.125,-59.25)">
			<title>Rectangle.160</title>
			<desc>D0</desc>
			<v:userDefs>
				<v:ud v:nameU="visVersion" v:val="VT0(15):26"/>
			</v:userDefs>
			<v:textBlock v:margins="rect(4,0,4,0)"/>
			<v:textRect cx="13.5" cy="188.25" width="27" height="13.5"/>
			<rect x="0" y="181.5" width="27" height="13.5" class="st2"/>
			<text x="7.89" y="191.25" class="st3" v:langID="1033"><v:paragraph v:horizAlign="1"/><v:tabList/>D0</text>		</g>
		<g id="shape167-21" v:mID="167" v:groupContext="shape" transform="translate(247.125,-59.25)">
			<title>Rectangle.167</title>
			<v:userDefs>
				<v:ud v:nameU="visVersion" v:val="VT0(15):26"/>
			</v:userDefs>
			<rect x="0" y="181.5" width="27" height="13.5" class="st1"/>
		</g>
		<g id="shape168-23" v:mID="168" v:groupContext="shape" transform="translate(274.125,-59.25)">
			<title>Rectangle.168</title>
			<v:userDefs>
				<v:ud v:nameU="visVersion" v:val="VT0(15):26"/>
			</v:userDefs>
			<rect x="0" y="181.5" width="27" height="13.5" class="st1"/>
		</g>
		<g id="shape169-25" v:mID="169" v:groupContext="shape" transform="translate(301.125,-59.25)">
			<title>Rectangle.169</title>
			<v:userDefs>
				<v:ud v:nameU="visVersion" v:val="VT0(15):26"/>
			</v:userDefs>
			<rect x="0" y="181.5" width="27" height="13.5" class="st1"/>
		</g>
		<g id="shape171-27" v:mID="171" v:groupContext="shape" transform="translate(85.125,-27.75)">
			<title>Rectangle.171</title>
			<v:userDefs>
				<v:ud v:nameU="visVersion" v:val="VT0(15):26"/>
			</v:userDefs>
			<rect x="0" y="181.5" width="27" height="13.5" class="st1"/>
		</g>
		<g id="shape172-29" v:mID="172" v:groupContext="shape" transform="translate(112.125,-27.75)">
			<title>Rectangle.172</title>
			<v:userDefs>
				<v:ud v:nameU="visVersion" v:val="VT0(15):26"/>
			</v:userDefs>
			<rect x="0" y="181.5" width="27" height="13.5" class="st1"/>
		</g>
		<g id="shape173-31" v:mID="173" v:groupContext="shape" transform="translate(139.125,-27.75)">
			<title>Rectangle.173</title>
			<v:userDefs>
				<v:ud v:nameU="visVersion" v:val="VT0(15):26"/>
			</v:userDefs>
			<rect x="0" y="181.5" width="27" height="13.5" class="st1"/>
		</g>
		<g id="shape177-33" v:mID="177" v:groupContext="shape" transform="translate(166.125,-27.75)">
			<title>Rectangle.177</title>
			<desc>B0</desc>
			<v:userDefs>
				<v:ud v:nameU="visVersion" v:val="VT0(15):26"/>
			</v:userDefs>
			<v:textBlock v:margins="rect(4,0,4,0)"/>
			<v:textRect cx="13.5" cy="188.25" width="27" height="13.5"/>
			<rect x="0" y="181.5" width="27" height="13.5" class="st2"/>
			<text x="8.25" y="191.25" class="st3" v:langID="1033"><v:paragraph v:horizAlign="1"/><v:tabList/>B0</text>		</g>
		<g id="shape178-36" v:mID="178" v:groupContext="shape" transform="translate(274.125,-27.75)">
			<title>Rectangle.178</title>
			<v:userDefs>
				<v:ud v:nameU="visVersion" v:val="VT0(15):26"/>
			</v:userDefs>
			<rect x="0" y="181.5" width="27" height="13.5" class="st1"/>
		</g>
		<g id="shape180-38" v:mID="180" v:groupContext="shape" transform="translate(247.125,-27.75)">
			<title>Rectangle.180</title>
			<v:userDefs>
				<v:ud v:nameU="visVersion" v:val="VT0(15):26"/>
			</v:userDefs>
			<rect x="0" y="181.5" width="27" height="13.5" class="st1"/>
		</g>
		<g id="shape182-40" v:mID="182" v:groupContext="shape" transform="translate(301.125,-27.75)">
			<title>Rectangle.182</title>
			<v:userDefs>
				<v:ud v:nameU="visVersion" v:val="VT0(15):26"/>
			</v:userDefs>
			<rect x="0" y="181.5" width="27" height="13.5" class="st1"/>
		</g>
		<g id="shape184-42" v:mID="184" v:groupContext="shape" transform="translate(85.125,-167.25)">
			<title>Rectangle.184</title>
			<v:userDefs>
				<v:ud v:nameU="visVersion" v:val="VT0(15):26"/>
			</v:userDefs>
			<rect x="0" y="181.5" width="27" height="13.5" class="st1"/>
		</g>
		<g id="shape185-44" v:mID="185" v:groupContext="shape" transform="translate(193.125,-167.25)">
			<title>Rectangle.185</title>
			<v:userDefs>
				<v:ud v:nameU="visVersion" v:val="VT0(15):26"/>
			</v:userDefs>
			<rect x="0" y="181.5" width="27" height="13.5" class="st1"/>
		</g>
		<g id="shape186-46" v:mID="186" v:groupContext="shape" transform="translate(139.125,-167.25)">
			<title>Rectangle.186</title>
			<v:userDefs>
				<v:ud v:nameU="visVersion" v:val="VT0(15):26"/>
			</v:userDefs>
			<rect x="0" y="181.5" width="27" height="13.5" class="st1"/>
		</g>
		<g id="shape187-48" v:mID="187" v:groupContext="shape" transform="translate(112.125,-167.25)">
			<title>Rectangle.187</title>
			<desc>A1</desc>
			<v:userDefs>
				<v:ud v:nameU="visVersion" v:val="VT0(15):26"/>
			</v:userDefs>
			<v:textBlock v:margins="rect(4,0,4,0)"/>
			<v:textRect cx="13.5" cy="188.25" width="27" height="13.5"/>
			<rect x="0" y="181.5" width="27" height="13.5" class="st4"/>
			<text x="8.07" y="191.25" class="st3" v:langID="1033"><v:paragraph v:horizAlign="1"/><v:tabList/>A1</text>		</g>
		<g id="shape188-51" v:mID="188" v:groupContext="shape" transform="translate(166.125,-167.25)">
			<title>Rectangle.188</title>
			<desc>A3</desc>
			<v:userDefs>
				<v:ud v:nameU="visVersion" v:val="VT0(15):26"/>
			</v:userDefs>
			<v:textBlock v:margins="rect(4,0,4,0)"/>
			<v:textRect cx="13.5" cy="188.25" width="27" height="13.5"/>
			<rect x="0" y="181.5" width="27" height="13.5" class="st5"/>
			<text x="8.07" y="191.25" class="st3" v:langID="1033"><v:paragraph v:horizAlign="1"/><v:tabList/>A3</text>		</g>
		<g id="shape189-54" v:mID="189" v:groupContext="shape" transform="translate(220.125,-167.25)">
			<title>Rectangle.189</title>
			<v:userDefs>
				<v:ud v:nameU="visVersion" v:val="VT0(15):26"/>
			</v:userDefs>
			<rect x="0" y="181.5" width="27" height="13.5" class="st1"/>
		</g>
		<g id="shape190-56" v:mID="190" v:groupContext="shape" transform="translate(274.125,-167.25)">
			<title>Rectangle.190</title>
			<desc>A5</desc>
			<v:userDefs>
				<v:ud v:nameU="visVersion" v:val="VT0(15):26"/>
			</v:userDefs>
			<v:textBlock v:margins="rect(4,0,4,0)"/>
			<v:textRect cx="13.5" cy="188.25" width="27" height="13.5"/>
			<rect x="0" y="181.5" width="27" height="13.5" class="st6"/>
			<text x="8.07" y="191.25" class="st3" v:langID="1033"><v:paragraph v:horizAlign="1"/><v:tabList/>A5</text>		</g>
		<g id="shape193-59" v:mID="193" v:groupContext="shape" transform="translate(247.125,-167.25)">
			<title>Rectangle.193</title>
			<v:userDefs>
				<v:ud v:nameU="visVersion" v:val="VT0(15):26"/>
			</v:userDefs>
			<rect x="0" y="181.5" width="27" height="13.5" class="st1"/>
		</g>
		<g id="shape195-61" v:mID="195" v:groupContext="shape" transform="translate(301.125,-167.25)">
			<title>Rectangle.195</title>
			<v:userDefs>
				<v:ud v:nameU="visVersion" v:val="VT0(15):26"/>
			</v:userDefs>
			<rect x="0" y="181.5" width="27" height="13.5" class="st1"/>
		</g>
		<g id="shape197-63" v:mID="197" v:groupContext="shape" transform="translate(85.125,-135.75)">
			<title>Rectangle.197</title>
			<v:userDefs>
				<v:ud v:nameU="visVersion" v:val="VT0(15):26"/>
			</v:userDefs>
			<rect x="0" y="181.5" width="27" height="13.5" class="st1"/>
		</g>
		<g id="shape198-65" v:mID="198" v:groupContext="shape" transform="translate(112.125,-135.75)">
			<title>Rectangle.198</title>
			<v:userDefs>
				<v:ud v:nameU="visVersion" v:val="VT0(15):26"/>
			</v:userDefs>
			<rect x="0" y="181.5" width="27" height="13.5" class="st1"/>
		</g>
		<g id="shape199-67" v:mID="199" v:groupContext="shape" transform="translate(220.125,-135.75)">
			<title>Rectangle.199</title>
			<v:userDefs>
				<v:ud v:nameU="visVersion" v:val="VT0(15):26"/>
			</v:userDefs>
			<rect x="0" y="181.5" width="27" height="13.5" class="st1"/>
		</g>
		<g id="shape200-69" v:mID="200" v:groupContext="shape" transform="translate(166.125,-135.75)">
			<title>Rectangle.200</title>
			<v:userDefs>
				<v:ud v:nameU="visVersion" v:val="VT0(15):26"/>
			</v:userDefs>
			<rect x="0" y="181.5" width="27" height="13.5" class="st1"/>
		</g>
		<g id="shape201-71" v:mID="201" v:groupContext="shape" transform="translate(139.125,-135.75)">
			<title>Rectangle.201</title>
			<desc>D1</desc>
			<v:userDefs>
				<v:ud v:nameU="visVersion" v:val="VT0(15):26"/>
			</v:userDefs>
			<v:textBlock v:margins="rect(4,0,4,0)"/>
			<v:textRect cx="13.5" cy="188.25" width="27" height="13.5"/>
			<rect x="0" y="181.5" width="27" height="13.5" class="st4"/>
			<text x="7.89" y="191.25" class="st3" v:langID="1033"><v:paragraph v:horizAlign="1"/><v:tabList/>D1</text>		</g>
		<g id="shape202-74" v:mID="202" v:groupContext="shape" transform="translate(193.125,-135.75)">
			<title>Rectangle.202</title>
			<desc>D3</desc>
			<v:userDefs>
				<v:ud v:nameU="visVersion" v:val="VT0(15):26"/>
			</v:userDefs>
			<v:textBlock v:margins="rect(4,0,4,0)"/>
			<v:textRect cx="13.5" cy="188.25" width="27" height="13.5"/>
			<rect x="0" y="181.5" width="27" height="13.5" class="st5"/>
			<text x="7.89" y="191.25" class="st3" v:langID="1033"><v:paragraph v:horizAlign="1"/><v:tabList/>D3</text>		</g>
		<g id="shape207-77" v:mID="207" v:groupContext="shape" transform="translate(274.125,-135.75)">
			<title>Rectangle.207</title>
			<v:userDefs>
				<v:ud v:nameU="visVersion" v:val="VT0(15):26"/>
			</v:userDefs>
			<rect x="0" y="181.5" width="27" height="13.5" class="st1"/>
		</g>
		<g id="shape208-79" v:mID="208" v:groupContext="shape" transform="translate(301.125,-135.75)">
			<title>Rectangle.208</title>
			<desc>D5</desc>
			<v:userDefs>
				<v:ud v:nameU="visVersion" v:val="VT0(15):26"/>
			</v:userDefs>
			<v:textBlock v:margins="rect(4,0,4,0)"/>
			<v:textRect cx="13.5" cy="188.25" width="27" height="13.5"/>
			<rect x="0" y="181.5" width="27" height="13.5" class="st6"/>
			<text x="7.89" y="191.25" class="st3" v:langID="1033"><v:paragraph v:horizAlign="1"/><v:tabList/>D5</text>		</g>
		<g id="shape210-82" v:mID="210" v:groupContext="shape" transform="translate(231.779,-54.9804) rotate(33.6901)">
			<title>Sheet.210</title>
			<path d="M0 191.37 C6.93 198.73 9.66 193.73 17.72 188.79 C20.66 186.99 24.3 185.2 28.66 187.95 L28.93 188.19"
					class="st7"/>
		</g>
		<g id="shape214-88" v:mID="214" v:groupContext="shape" transform="translate(231.779,-131.48) rotate(33.6901)">
			<title>Sheet.214</title>
			<path d="M0 191.37 C6.93 198.73 9.66 193.73 17.72 188.79 C20.66 186.99 24.3 185.2 28.66 187.95 L28.93 188.19"
					class="st7"/>
		</g>
		<g id="shape244-93" v:mID="244" v:groupContext="shape" transform="translate(258.779,-23.4804) rotate(33.6901)">
			<title>Sheet.244</title>
			<path d="M0 191.37 C6.93 198.73 9.66 193.73 17.72 188.79 C20.66 186.99 24.3 185.2 28.66 187.95 L28.93 188.19"
					class="st7"/>
		</g>
		<g id="shape247-98" v:mID="247" v:groupContext="shape" transform="translate(247.125,-135.75)">
			<title>Rectangle.247</title>
			<v:userDefs>
				<v:ud v:nameU="visVersion" v:val="VT0(15):26"/>
			</v:userDefs>
			<rect x="0" y="181.5" width="27" height="13.5" class="st1"/>
		</g>
		<g id="shape248-100" v:mID="248" v:groupContext="shape" transform="translate(285.779,-131.48) rotate(33.6901)">
			<title>Sheet.248</title>
			<path d="M0 191.37 C6.93 198.73 9.66 193.73 17.72 188.79 C20.66 186.99 24.3 185.2 28.66 187.95 L28.93 188.19"
					class="st7"/>
		</g>
		<g id="shape249-105" v:mID="249" v:groupContext="shape" transform="translate(393.779,-131.48) rotate(33.6901)">
			<title>Sheet.249</title>
			<path d="M0 191.37 C6.93 198.73 9.66 193.73 17.72 188.79 C20.66 186.99 24.3 185.2 28.66 187.95 L28.93 188.19"
					class="st7"/>
		</g>
		<g id="shape1022-110" v:mID="1022" v:groupContext="shape" transform="translate(0.749953,-0.75)">
			<title>Rounded Rectangle.1022</title>
			<v:userDefs>
				<v:ud v:nameU="CTypeTopLeftSnip" v:prompt="" v:val="VT0(0):5"/>
				<v:ud v:nameU="CTypeTopRightSnip" v:prompt="" v:val="VT0(0):5"/>
				<v:ud v:nameU="CTypeBotLeftSnip" v:prompt="" v:val="VT0(0):5"/>
				<v:ud v:nameU="CTypeBotRightSnip" v:prompt="" v:val="VT0(0):5"/>
				<v:ud v:nameU="CornerLockHoriz" v:prompt="" v:val="VT0(1):5"/>
				<v:ud v:nameU="CornerLockVert" v:prompt="" v:val="VT0(1):5"/>
				<v:ud v:nameU="CornerLockDiag" v:prompt="" v:val="VT0(0):5"/>
				<v:ud v:nameU="TopLeftOffset" v:prompt="" v:val="VT0(0.15):1"/>
				<v:ud v:nameU="TopRightOffset" v:prompt="" v:val="VT0(0.15):1"/>
				<v:ud v:nameU="BotLeftOffset" v:prompt="" v:val="VT0(0.15):1"/>
				<v:ud v:nameU="BotRightOffset" v:prompt="" v:val="VT0(0.15):1"/>
				<v:ud v:nameU="visVersion" v:prompt="" v:val="VT0(15):26"/>
				<v:ud v:nameU="TopLeftOffset" v:prompt="" v:val="VT0(0.039798980802018):1"/>
				<v:ud v:nameU="TopRightOffset" v:prompt="" v:val="VT0(0.039798980802018):1"/>
				<v:ud v:nameU="BotLeftOffset" v:prompt="" v:val="VT0(0.039798980802018):1"/>
				<v:ud v:nameU="BotRightOffset" v:prompt="" v:val="VT0(0.039798980802018):1"/>
			</v:userDefs>
			<path d="M2.87 195 L83.42 195 A2.86548 2.86548 -180 0 0 86.29 192.13 L86.29 4.37 A2.86548 2.86548 -180 0 0 83.42 1.5
						 L2.87 1.5 A2.86548 2.86548 -180 0 0 0 4.37 L0 192.13 A2.86548 2.86548 -180 0 0 2.87 195 Z" class="st9"/>
		</g>
		<g id="shape1035-112" v:mID="1035" v:groupContext="shape" transform="translate(0.749953,-5.25)">
			<title>Sheet.1035</title>
			<desc>ARM MASTER</desc>
			<v:textBlock v:margins="rect(4,0,4,0)"/>
			<v:textRect cx="42.1875" cy="188.313" width="84.38" height="13.375"/>
			<rect x="0" y="181.625" width="84.375" height="13.375" class="st10"/>
			<text x="7.58" y="191.31" class="st11" v:langID="1033"><v:paragraph v:spLine="-1" v:horizAlign="1"/><v:tabList/>ARM MASTER</text>		</g>
		<g id="shape1036-115" v:mID="1036" v:groupContext="shape" transform="translate(327,-0.75)">
			<title>Rounded Rectangle.1036</title>
			<v:userDefs>
				<v:ud v:nameU="CTypeTopLeftSnip" v:prompt="" v:val="VT0(0):5"/>
				<v:ud v:nameU="CTypeTopRightSnip" v:prompt="" v:val="VT0(0):5"/>
				<v:ud v:nameU="CTypeBotLeftSnip" v:prompt="" v:val="VT0(0):5"/>
				<v:ud v:nameU="CTypeBotRightSnip" v:prompt="" v:val="VT0(0):5"/>
				<v:ud v:nameU="CornerLockHoriz" v:prompt="" v:val="VT0(1):5"/>
				<v:ud v:nameU="CornerLockVert" v:prompt="" v:val="VT0(1):5"/>
				<v:ud v:nameU="CornerLockDiag" v:prompt="" v:val="VT0(0):5"/>
				<v:ud v:nameU="TopLeftOffset" v:prompt="" v:val="VT0(0.15):1"/>
				<v:ud v:nameU="TopRightOffset" v:prompt="" v:val="VT0(0.15):1"/>
				<v:ud v:nameU="BotLeftOffset" v:prompt="" v:val="VT0(0.15):1"/>
				<v:ud v:nameU="BotRightOffset" v:prompt="" v:val="VT0(0.15):1"/>
				<v:ud v:nameU="visVersion" v:prompt="" v:val="VT0(15):26"/>
				<v:ud v:nameU="TopLeftOffset" v:prompt="" v:val="VT0(0.06642):1"/>
				<v:ud v:nameU="TopRightOffset" v:prompt="" v:val="VT0(0.06642):1"/>
				<v:ud v:nameU="BotLeftOffset" v:prompt="" v:val="VT0(0.06642):1"/>
				<v:ud v:nameU="BotRightOffset" v:prompt="" v:val="VT0(0.06642):1"/>
			</v:userDefs>
			<path d="M4.78 195 L139.22 195 A4.78216 4.78216 -180 0 0 144 190.22 L144 6.28 A4.78216 4.78216 -180 0 0 139.22 1.5 L4.78
						 1.5 A4.78216 4.78216 -180 0 0 0 6.28 L0 190.22 A4.78216 4.78216 -180 0 0 4.78 195 Z" class="st12"/>
		</g>
		<g id="shape1037-117" v:mID="1037" v:groupContext="shape" transform="translate(327,-4.0625)">
			<title>Sheet.1037</title>
			<desc>FPGA SLAVE</desc>
			<v:textBlock v:margins="rect(4,0,4,0)"/>
			<v:textRect cx="72" cy="188.25" width="144" height="13.5"/>
			<rect x="0" y="181.5" width="144" height="13.5" class="st10"/>
			<text x="41.75" y="191.25" class="st11" v:langID="1033"><v:paragraph v:spLine="-1" v:horizAlign="1"/><v:tabList/>FPGA SLAVE</text>		</g>
		<g id="shape1038-120" v:mID="1038" v:groupContext="shape" transform="translate(347.25,-93)">
			<title>Sheet.1038</title>
			<desc>Write Address Channel</desc>
			<v:textBlock v:margins="rect(4,0,4,0)"/>
			<v:textRect cx="61.875" cy="188.313" width="123.75" height="13.375"/>
			<rect x="0" y="181.625" width="123.75" height="13.375" class="st10"/>
			<text x="0" y="191.31" class="st13" v:langID="1033"><v:paragraph v:spLine="-1"/><v:tabList/>Write Address Channel</text>		</g>
		<g id="shape1051-123" v:mID="1051" v:groupContext="shape" transform="translate(347.25,-60.3125)">
			<title>Sheet.1051</title>
			<desc>Write Data Channel</desc>
			<v:textBlock v:margins="rect(4,0,4,0)"/>
			<v:textRect cx="61.875" cy="188.313" width="123.75" height="13.375"/>
			<rect x="0" y="181.625" width="123.75" height="13.375" class="st10"/>
			<text x="0" y="191.31" class="st13" v:langID="1033"><v:paragraph v:spLine="-1"/><v:tabList/>Write Data Channel</text>		</g>
		<g id="shape1064-126" v:mID="1064" v:groupContext="shape" transform="translate(347.25,-27.875)">
			<title>Sheet.1064</title>
			<desc>Write Response</desc>
			<v:textBlock v:margins="rect(4,0,4,0)"/>
			<v:textRect cx="61.875" cy="188.313" width="123.75" height="13.375"/>
			<rect x="0" y="181.625" width="123.75" height="13.375" class="st10"/>
			<text x="0" y="191.31" class="st13" v:langID="1033"><v:paragraph v:spLine="-1"/><v:tabList/>Write Response</text>		</g>
		<g id="shape1089-129" v:mID="1089" v:groupContext="shape" transform="translate(347.25,-136.875)">
			<title>Sheet.1089</title>
			<desc>Read Data Channel</desc>
			<v:textBlock v:margins="rect(4,0,4,0)"/>
			<v:textRect cx="61.875" cy="188.313" width="123.75" height="13.375"/>
			<rect x="0" y="181.625" width="123.75" height="13.375" class="st10"/>
			<text x="0" y="191.31" class="st13" v:langID="1033"><v:paragraph v:spLine="-1"/><v:tabList/>Read Data Channel</text>		</g>
		<g id="shape1097-132" v:mID="1097" v:groupContext="shape" transform="translate(330.937,-170.625)">
			<title>Sheet.1097</title>
			<path d="M0 192.98 L7.27 192.98 L7.27 195 L11.81 191.63 L7.27 188.25 L7.27 190.28 L0 190.28 L0 192.98 Z" class="st14"/>
		</g>
		<g id="shape1098-134" v:mID="1098" v:groupContext="shape" transform="translate(343.312,-140.25) scale(-1,1)">
			<title>Sheet.1098</title>
			<path d="M0 192.98 L7.27 192.98 L7.27 195 L11.81 191.63 L7.27 188.25 L7.27 190.28 L0 190.28 L0 192.98 Z" class="st15"/>
		</g>
		<g id="shape1099-136" v:mID="1099" v:groupContext="shape" transform="translate(331.5,-95.25)">
			<title>Sheet.1099</title>
			<path d="M0 192.98 L7.27 192.98 L7.27 195 L11.81 191.63 L7.27 188.25 L7.27 190.28 L0 190.28 L0 192.98 Z" class="st14"/>
		</g>
		<g id="shape1100-138" v:mID="1100" v:groupContext="shape" transform="translate(331.5,-63.75)">
			<title>Sheet.1100</title>
			<path d="M0 192.98 L7.27 192.98 L7.27 195 L11.81 191.63 L7.27 188.25 L7.27 190.28 L0 190.28 L0 192.98 Z" class="st14"/>
		</g>
		<g id="shape1101-140" v:mID="1101" v:groupContext="shape" transform="translate(343.312,-32.25) scale(-1,1)">
			<title>Sheet.1101</title>
			<path d="M0 192.98 L7.27 192.98 L7.27 195 L11.81 191.63 L7.27 188.25 L7.27 190.28 L0 190.28 L0 192.98 Z" class="st15"/>
		</g>
		<g id="shape1102-142" v:mID="1102" v:groupContext="shape" transform="translate(70.2187,-135.75)">
			<title>Sheet.1102</title>
			<path d="M9 150 A4.5 4.49769 -180 0 0 4.5 154.5 L4.5 167.99 A5.83315 5.10138 0 0 1 0 172.49 A4.56309 3.99066 0 0 1 4.5
						 176.99 L4.5 190.48 A4.08265 4.33559 -180 0 0 9 194.98" class="st16"/>
		</g>
		<g id="shape1103-145" v:mID="1103" v:groupContext="shape" transform="translate(70.5,-27.75)">
			<title>Sheet.1103</title>
			<path d="M9 118.5 A4.5 7.64607 -180 0 0 4.5 126.15 L4.5 149.08 A5.83315 8.67235 0 0 1 -0 156.73 A4.56309 6.78411 0 0
						 1 4.5 164.38 L4.5 187.31 A4.08265 7.3705 -180 0 0 9 194.96" class="st16"/>
		</g>
		<g id="shape1104-148" v:mID="1104" v:groupContext="shape" transform="translate(14.5312,-144.812)">
			<title>Sheet.1104</title>
			<desc>READ Channels</desc>
			<v:textBlock v:margins="rect(4,0,4,0)"/>
			<v:textRect cx="29.25" cy="181.563" width="58.5" height="26.875"/>
			<rect x="0" y="168.125" width="58.5" height="26.875" class="st10"/>
			<text x="15.53" y="178.56" class="st11" v:langID="1033"><v:paragraph v:spLine="-1" v:horizAlign="1"/><v:tabList/>READ<v:newlineChar/><tspan
						x="6.56" dy="1em" class="st17">Channels</tspan></text>		</g>
		<g id="shape1105-152" v:mID="1105" v:groupContext="shape" transform="translate(14.25,-52.5)">
			<title>Sheet.1105</title>
			<desc>WRITE Channels</desc>
			<v:textBlock v:margins="rect(4,0,4,0)"/>
			<v:textRect cx="29.25" cy="181.563" width="58.5" height="26.875"/>
			<rect x="0" y="168.125" width="58.5" height="26.875" class="st10"/>
			<text x="12.94" y="178.56" class="st11" v:langID="1033"><v:paragraph v:spLine="-1" v:horizAlign="1"/><v:tabList/>WRITE<v:newlineChar/><tspan
						x="6.56" dy="1em" class="st17">Channels</tspan></text>		</g>
		<g id="shape1106-156" v:mID="1106" v:groupContext="shape" transform="translate(347.25,-167.25)">
			<title>Sheet.1106</title>
			<desc>Read Address Channel</desc>
			<v:textBlock v:margins="rect(4,0,4,0)"/>
			<v:textRect cx="61.875" cy="188.313" width="123.75" height="13.375"/>
			<rect x="0" y="181.625" width="123.75" height="13.375" class="st10"/>
			<text x="0" y="191.31" class="st13" v:langID="1033"><v:paragraph v:spLine="-1"/><v:tabList/>Read Address Channel</text>		</g>
		<g id="shape1107-159" v:mID="1107" v:groupContext="shape" transform="translate(166.125,-90.75)">
			<title>Rectangle.1107</title>
			<desc>A2</desc>
			<v:userDefs>
				<v:ud v:nameU="visVersion" v:val="VT0(15):26"/>
			</v:userDefs>
			<v:textBlock v:margins="rect(4,0,4,0)"/>
			<v:textRect cx="13.5" cy="188.25" width="27" height="13.5"/>
			<rect x="0" y="181.5" width="27" height="13.5" class="st18"/>
			<text x="8.07" y="191.25" class="st3" v:langID="1033"><v:paragraph v:horizAlign="1"/><v:tabList/>A2</text>		</g>
		<g id="shape1108-162" v:mID="1108" v:groupContext="shape" transform="translate(193.125,-90.75)">
			<title>Rectangle.1108</title>
			<v:userDefs>
				<v:ud v:nameU="visVersion" v:val="VT0(15):26"/>
			</v:userDefs>
			<rect x="0" y="181.5" width="27" height="13.5" class="st1"/>
		</g>
		<g id="shape1109-164" v:mID="1109" v:groupContext="shape" transform="translate(220.125,-90.75)">
			<title>Rectangle.1109</title>
			<v:userDefs>
				<v:ud v:nameU="visVersion" v:val="VT0(15):26"/>
			</v:userDefs>
			<rect x="0" y="181.5" width="27" height="13.5" class="st1"/>
		</g>
		<g id="shape1111-166" v:mID="1111" v:groupContext="shape" transform="translate(166.125,-59.25)">
			<title>Rectangle.1111</title>
			<desc>D2</desc>
			<v:userDefs>
				<v:ud v:nameU="visVersion" v:val="VT0(15):26"/>
			</v:userDefs>
			<v:textBlock v:margins="rect(4,0,4,0)"/>
			<v:textRect cx="13.5" cy="188.25" width="27" height="13.5"/>
			<rect x="0" y="181.5" width="27" height="13.5" class="st18"/>
			<text x="7.89" y="191.25" class="st3" v:langID="1033"><v:paragraph v:horizAlign="1"/><v:tabList/>D2</text>		</g>
		<g id="shape1112-169" v:mID="1112" v:groupContext="shape" transform="translate(193.125,-27.75)">
			<title>Rectangle.1112</title>
			<v:userDefs>
				<v:ud v:nameU="visVersion" v:val="VT0(15):26"/>
			</v:userDefs>
			<rect x="0" y="181.5" width="27" height="13.5" class="st1"/>
		</g>
		<g id="shape1114-171" v:mID="1114" v:groupContext="shape" transform="translate(220.125,-27.75)">
			<title>Rectangle.1114</title>
			<desc>B2</desc>
			<v:userDefs>
				<v:ud v:nameU="visVersion" v:val="VT0(15):26"/>
			</v:userDefs>
			<v:textBlock v:margins="rect(4,0,4,0)"/>
			<v:textRect cx="13.5" cy="188.25" width="27" height="13.5"/>
			<rect x="0" y="181.5" width="27" height="13.5" class="st18"/>
			<text x="8.25" y="191.25" class="st3" v:langID="1033"><v:paragraph v:horizAlign="1"/><v:tabList/>B2</text>		</g>
		<g id="shape1115-174" v:mID="1115" v:groupContext="shape" transform="translate(220.125,-59.25)">
			<title>Rectangle.1115</title>
			<v:userDefs>
				<v:ud v:nameU="visVersion" v:val="VT0(15):26"/>
			</v:userDefs>
			<rect x="0" y="181.5" width="27" height="13.5" class="st1"/>
		</g>
		<g id="shape1116-176" v:mID="1116" v:groupContext="shape" transform="translate(372.251,112.617) rotate(92.4973)">
			<title>Sheet.1116</title>
			<path d="M0 192.02 C4.43 190.36 6.49 190.34 9.02 193.36 C9.86 194.36 10.76 195.71 13.62 194.61 L13.93 194.43"
					class="st7"/>
		</g>
		<g id="shape1117-181" v:mID="1117" v:groupContext="shape" transform="translate(240.154,-45.8369) rotate(18.4349)">
			<title>Sheet.1117</title>
			<path d="M0 191.41 C7.12 198.52 15.81 193.76 32.54 188.87 C38.89 187.01 46.39 185.13 52.81 188.39 L53.1 188.61"
					class="st7"/>
		</g>
		<g id="shape1124-186" v:mID="1124" v:groupContext="shape" transform="translate(193.125,-59.25)">
			<title>Rectangle.1124</title>
			<v:userDefs>
				<v:ud v:nameU="visVersion" v:val="VT0(15):26"/>
			</v:userDefs>
			<rect x="0" y="181.5" width="27" height="13.5" class="st1"/>
		</g>
	</g>
</svg>
