<?xml version="1.0" encoding="UTF-8" standalone="no"?>
<!DOCTYPE svg PUBLIC "-//W3C//DTD SVG 1.1//EN" "http://www.w3.org/Graphics/SVG/1.1/DTD/svg11.dtd">
<!-- Generated by Microsoft Visio, SVG Export AXI read timing.svg Page-1 -->
<svg xmlns="http://www.w3.org/2000/svg" xmlns:xlink="http://www.w3.org/1999/xlink" xmlns:ev="http://www.w3.org/2001/xml-events"
		xmlns:v="http://schemas.microsoft.com/visio/2003/SVGExtensions/" width="7.19792in" height="3.32465in"
		viewBox="0 0 518.25 239.375" xml:space="preserve" color-interpolation-filters="sRGB" class="st10">
	<v:documentProperties v:langID="1033" v:viewMarkup="false"/>

	<style type="text/css">
	<![CDATA[
		.st1 {stroke:#000000;stroke-linecap:round;stroke-linejoin:round;stroke-width:1}
		.st2 {fill:none;stroke:none;stroke-width:0.25}
		.st3 {fill:#000000;font-family:Calibri;font-size:1.00001em}
		.st4 {stroke:#000000;stroke-dasharray:1.5,1.5;stroke-linecap:round;stroke-linejoin:round;stroke-width:0.5}
		.st5 {stroke:#000000;stroke-linecap:round;stroke-linejoin:round;stroke-width:0.75}
		.st6 {fill:#000000;font-family:Calibri;font-size:0.833336em}
		.st7 {stroke:#000000;stroke-linecap:round;stroke-linejoin:round;stroke-width:1.25}
		.st8 {fill:#000000;font-family:Calibri;font-size:1.00001em;font-weight:bold}
		.st9 {font-size:1em}
		.st10 {fill:none;fill-rule:evenodd;font-size:12px;overflow:visible;stroke-linecap:square;stroke-miterlimit:3}
	]]>
	</style>

	<g v:mID="0" v:index="1" v:groupContext="foregroundPage">
		<title>Page-1</title>
		<v:pageProperties v:drawingScale="1" v:pageScale="1" v:drawingUnits="19" v:shadowOffsetX="9" v:shadowOffsetY="-9"/>
		<g id="shape790-1" v:mID="790" v:groupContext="shape" transform="translate(160,-225.25)">
			<title>Sheet.790</title>
			<path d="M0 239.38 L13.5 239.38 L13.5 225.88 L49.5 225.88 L49.5 239.38" class="st1"/>
		</g>
		<g id="shape791-4" v:mID="791" v:groupContext="shape" transform="translate(209.5,-225.25)">
			<title>Sheet.791</title>
			<path d="M0 239.38 L36 239.38 L36 225.88 L72 225.88 L72 239.38" class="st1"/>
		</g>
		<g id="shape792-7" v:mID="792" v:groupContext="shape" transform="translate(281.5,-225.25)">
			<title>Sheet.792</title>
			<path d="M0 239.38 L36 239.38 L36 225.88 L72 225.88 L72 239.38" class="st1"/>
		</g>
		<g id="shape793-10" v:mID="793" v:groupContext="shape" transform="translate(353.5,-225.25)">
			<title>Sheet.793</title>
			<path d="M0 239.38 L36 239.38 L36 225.88 L72 225.88 L72 239.38" class="st1"/>
		</g>
		<g id="shape795-13" v:mID="795" v:groupContext="shape" transform="translate(87.4375,-225.25)">
			<title>Sheet.795</title>
			<desc>AXI_CLK</desc>
			<v:textBlock v:margins="rect(4,0,4,0)"/>
			<v:textRect cx="33.75" cy="232.688" width="67.5" height="13.375"/>
			<rect x="0" y="226" width="67.5" height="13.375" class="st2"/>
			<text x="27.65" y="235.69" class="st3" v:langID="1033"><v:paragraph v:spLine="-1" v:horizAlign="2"/><v:tabList/>AXI_CLK</text>		</g>
		<g id="shape796-16" v:mID="796" v:groupContext="shape" transform="translate(160,-198.25)">
			<title>Sheet.796</title>
			<path d="M0 225.88 L85.5 225.88 L90 239.38 L229.5 239.38 L234 225.88 L355.5 225.88" class="st1"/>
		</g>
		<g id="shape797-19" v:mID="797" v:groupContext="shape" transform="translate(160,267) scale(1,-1)">
			<title>Sheet.797</title>
			<path d="M0 225.88 L85.5 225.88 L90 239.38 L229.5 239.38 L234 225.88 L355.5 225.88" class="st1"/>
		</g>
		<g id="shape798-22" v:mID="798" v:groupContext="shape" transform="translate(70.5625,-198.375)">
			<title>Sheet.798</title>
			<desc>ARADDR[31:0]</desc>
			<v:textBlock v:margins="rect(4,0,4,0)"/>
			<v:textRect cx="42.1875" cy="232.688" width="84.38" height="13.375"/>
			<rect x="0" y="226" width="84.375" height="13.375" class="st2"/>
			<text x="13.87" y="235.69" class="st3" v:langID="1033"><v:paragraph v:spLine="-1" v:horizAlign="2"/><v:tabList/>ARADDR[31:0]</text>		</g>
		<g id="shape799-25" v:mID="799" v:groupContext="shape" transform="translate(160,-171.125)">
			<title>Sheet.799</title>
			<path d="M0 239.38 L85.5 239.38 L85.5 225.88 L229.5 225.88 L229.5 239.38 L355.5 239.25" class="st1"/>
		</g>
		<g id="shape800-28" v:mID="800" v:groupContext="shape" transform="translate(87.4375,-171.375)">
			<title>Sheet.800</title>
			<desc>ARVALID</desc>
			<v:textBlock v:margins="rect(4,0,4,0)"/>
			<v:textRect cx="33.75" cy="232.688" width="67.5" height="13.375"/>
			<rect x="0" y="226" width="67.5" height="13.375" class="st2"/>
			<text x="24.84" y="235.69" class="st3" v:langID="1033"><v:paragraph v:spLine="-1" v:horizAlign="2"/><v:tabList/>ARVALID</text>		</g>
		<g id="shape801-31" v:mID="801" v:groupContext="shape" transform="translate(160,-144.25)">
			<title>Sheet.801</title>
			<path d="M0 239.38 L157.5 239.38 L157.5 225.88 L229.5 225.88 L229.5 239.38 L355.5 239.38" class="st1"/>
		</g>
		<g id="shape802-34" v:mID="802" v:groupContext="shape" transform="translate(87.4375,-144.375)">
			<title>Sheet.802</title>
			<desc>ARREADY</desc>
			<v:textBlock v:margins="rect(4,0,4,0)"/>
			<v:textRect cx="33.75" cy="232.688" width="67.5" height="13.375"/>
			<rect x="0" y="226" width="67.5" height="13.375" class="st2"/>
			<text x="21.49" y="235.69" class="st3" v:langID="1033"><v:paragraph v:spLine="-1" v:horizAlign="2"/><v:tabList/>ARREADY</text>		</g>
		<g id="shape803-37" v:mID="803" v:groupContext="shape" transform="translate(484.875,14.125) rotate(90)">
			<title>Sheet.803</title>
			<path d="M0 239.38 L225 239.38" class="st4"/>
		</g>
		<g id="shape804-40" v:mID="804" v:groupContext="shape" transform="translate(472.591,103.322) rotate(108.435)">
			<title>Sheet.804</title>
			<path d="M0 239.38 L14.23 239.38" class="st5"/>
		</g>
		<g id="shape805-43" v:mID="805" v:groupContext="shape" transform="translate(468.091,103.322) rotate(108.435)">
			<title>Sheet.805</title>
			<path d="M0 239.38 L14.23 239.38" class="st5"/>
		</g>
		<g id="shape806-46" v:mID="806" v:groupContext="shape" transform="translate(463.591,103.322) rotate(108.435)">
			<title>Sheet.806</title>
			<path d="M0 239.38 L14.23 239.38" class="st5"/>
		</g>
		<g id="shape807-49" v:mID="807" v:groupContext="shape" transform="translate(459.091,103.322) rotate(108.435)">
			<title>Sheet.807</title>
			<path d="M0 239.38 L14.23 239.38" class="st5"/>
		</g>
		<g id="shape808-52" v:mID="808" v:groupContext="shape" transform="translate(454.591,103.322) rotate(108.435)">
			<title>Sheet.808</title>
			<path d="M0 239.38 L14.23 239.38" class="st5"/>
		</g>
		<g id="shape809-55" v:mID="809" v:groupContext="shape" transform="translate(450.091,103.322) rotate(108.435)">
			<title>Sheet.809</title>
			<path d="M0 239.38 L14.23 239.38" class="st5"/>
		</g>
		<g id="shape810-58" v:mID="810" v:groupContext="shape" transform="translate(445.591,103.322) rotate(108.435)">
			<title>Sheet.810</title>
			<path d="M0 239.38 L14.23 239.38" class="st5"/>
		</g>
		<g id="shape811-61" v:mID="811" v:groupContext="shape" transform="translate(441.091,103.322) rotate(108.435)">
			<title>Sheet.811</title>
			<path d="M0 239.38 L14.23 239.38" class="st5"/>
		</g>
		<g id="shape812-64" v:mID="812" v:groupContext="shape" transform="translate(436.591,103.322) rotate(108.435)">
			<title>Sheet.812</title>
			<path d="M0 239.38 L14.23 239.38" class="st5"/>
		</g>
		<g id="shape813-67" v:mID="813" v:groupContext="shape" transform="translate(432.091,103.322) rotate(108.435)">
			<title>Sheet.813</title>
			<path d="M0 239.38 L14.23 239.38" class="st5"/>
		</g>
		<g id="shape814-70" v:mID="814" v:groupContext="shape" transform="translate(427.591,103.322) rotate(108.435)">
			<title>Sheet.814</title>
			<path d="M0 239.38 L14.23 239.38" class="st5"/>
		</g>
		<g id="shape815-73" v:mID="815" v:groupContext="shape" transform="translate(423.091,103.322) rotate(108.435)">
			<title>Sheet.815</title>
			<path d="M0 239.38 L14.23 239.38" class="st5"/>
		</g>
		<g id="shape816-76" v:mID="816" v:groupContext="shape" transform="translate(418.591,103.322) rotate(108.435)">
			<title>Sheet.816</title>
			<path d="M0 239.38 L14.23 239.38" class="st5"/>
		</g>
		<g id="shape817-79" v:mID="817" v:groupContext="shape" transform="translate(414.091,103.322) rotate(108.435)">
			<title>Sheet.817</title>
			<path d="M0 239.38 L14.23 239.38" class="st5"/>
		</g>
		<g id="shape818-82" v:mID="818" v:groupContext="shape" transform="translate(409.591,103.322) rotate(108.435)">
			<title>Sheet.818</title>
			<path d="M0 239.38 L14.23 239.38" class="st5"/>
		</g>
		<g id="shape819-85" v:mID="819" v:groupContext="shape" transform="translate(405.091,103.322) rotate(108.435)">
			<title>Sheet.819</title>
			<path d="M0 239.38 L14.23 239.38" class="st5"/>
		</g>
		<g id="shape820-88" v:mID="820" v:groupContext="shape" transform="translate(400.591,103.322) rotate(108.435)">
			<title>Sheet.820</title>
			<path d="M0 239.38 L14.23 239.38" class="st5"/>
		</g>
		<g id="shape821-91" v:mID="821" v:groupContext="shape" transform="translate(396.091,103.322) rotate(108.435)">
			<title>Sheet.821</title>
			<path d="M0 239.38 L14.23 239.38" class="st5"/>
		</g>
		<g id="shape822-94" v:mID="822" v:groupContext="shape" transform="translate(391.591,103.322) rotate(108.435)">
			<title>Sheet.822</title>
			<path d="M0 239.38 L14.23 239.38" class="st5"/>
		</g>
		<g id="shape823-97" v:mID="823" v:groupContext="shape" transform="translate(670.591,103.322) rotate(108.435)">
			<title>Sheet.823</title>
			<path d="M0 239.38 L14.23 239.38" class="st5"/>
		</g>
		<g id="shape824-100" v:mID="824" v:groupContext="shape" transform="translate(666.091,103.322) rotate(108.435)">
			<title>Sheet.824</title>
			<path d="M0 239.38 L14.23 239.38" class="st5"/>
		</g>
		<g id="shape825-103" v:mID="825" v:groupContext="shape" transform="translate(661.591,103.322) rotate(108.435)">
			<title>Sheet.825</title>
			<path d="M0 239.38 L14.23 239.38" class="st5"/>
		</g>
		<g id="shape826-106" v:mID="826" v:groupContext="shape" transform="translate(657.091,103.322) rotate(108.435)">
			<title>Sheet.826</title>
			<path d="M0 239.38 L14.23 239.38" class="st5"/>
		</g>
		<g id="shape827-109" v:mID="827" v:groupContext="shape" transform="translate(652.591,103.322) rotate(108.435)">
			<title>Sheet.827</title>
			<path d="M0 239.38 L14.23 239.38" class="st5"/>
		</g>
		<g id="shape828-112" v:mID="828" v:groupContext="shape" transform="translate(648.091,103.322) rotate(108.435)">
			<title>Sheet.828</title>
			<path d="M0 239.38 L14.23 239.38" class="st5"/>
		</g>
		<g id="shape829-115" v:mID="829" v:groupContext="shape" transform="translate(643.591,103.322) rotate(108.435)">
			<title>Sheet.829</title>
			<path d="M0 239.38 L14.23 239.38" class="st5"/>
		</g>
		<g id="shape830-118" v:mID="830" v:groupContext="shape" transform="translate(639.091,103.322) rotate(108.435)">
			<title>Sheet.830</title>
			<path d="M0 239.38 L14.23 239.38" class="st5"/>
		</g>
		<g id="shape831-121" v:mID="831" v:groupContext="shape" transform="translate(634.591,103.322) rotate(108.435)">
			<title>Sheet.831</title>
			<path d="M0 239.38 L14.23 239.38" class="st5"/>
		</g>
		<g id="shape832-124" v:mID="832" v:groupContext="shape" transform="translate(630.091,103.322) rotate(108.435)">
			<title>Sheet.832</title>
			<path d="M0 239.38 L14.23 239.38" class="st5"/>
		</g>
		<g id="shape833-127" v:mID="833" v:groupContext="shape" transform="translate(625.591,103.322) rotate(108.435)">
			<title>Sheet.833</title>
			<path d="M0 239.38 L14.23 239.38" class="st5"/>
		</g>
		<g id="shape887-130" v:mID="887" v:groupContext="shape" transform="translate(160,-94.75)">
			<title>Sheet.887</title>
			<path d="M0 225.88 L72 225.88 L157.5 225.88 L162 239.38 L301.5 239.38 L306 225.88 L355.5 225.88" class="st1"/>
		</g>
		<g id="shape888-133" v:mID="888" v:groupContext="shape" transform="translate(160,370.5) scale(1,-1)">
			<title>Sheet.888</title>
			<path d="M0 225.88 L72 225.88 L157.5 225.88 L162 239.38 L301.5 239.38 L306 225.88 L355.5 225.88" class="st1"/>
		</g>
		<g id="shape889-136" v:mID="889" v:groupContext="shape" transform="translate(70.5625,-94.875)">
			<title>Sheet.889</title>
			<desc>RDATA[31:0]</desc>
			<v:textBlock v:margins="rect(4,0,4,0)"/>
			<v:textRect cx="42.1875" cy="232.688" width="84.38" height="13.375"/>
			<rect x="0" y="226" width="84.375" height="13.375" class="st2"/>
			<text x="21.93" y="235.69" class="st3" v:langID="1033"><v:paragraph v:spLine="-1" v:horizAlign="2"/><v:tabList/>RDATA[31:0]</text>		</g>
		<g id="shape890-139" v:mID="890" v:groupContext="shape" transform="translate(160,-67.75)">
			<title>Sheet.890</title>
			<path d="M0 239.38 L157.5 239.38 L157.5 225.88 L301.5 225.88 L301.5 239.38 L355.5 239.38" class="st1"/>
		</g>
		<g id="shape891-142" v:mID="891" v:groupContext="shape" transform="translate(87.4375,-67.875)">
			<title>Sheet.891</title>
			<desc>RVALID</desc>
			<v:textBlock v:margins="rect(4,0,4,0)"/>
			<v:textRect cx="33.75" cy="232.688" width="67.5" height="13.375"/>
			<rect x="0" y="226" width="67.5" height="13.375" class="st2"/>
			<text x="31.78" y="235.69" class="st3" v:langID="1033"><v:paragraph v:spLine="-1" v:horizAlign="2"/><v:tabList/>RVALID</text>		</g>
		<g id="shape892-145" v:mID="892" v:groupContext="shape" transform="translate(160,-40.75)">
			<title>Sheet.892</title>
			<path d="M0 239.38 L229.5 239.38 L229.5 225.88 L301.5 225.88 L301.5 239.38 L357.75 239.38" class="st1"/>
		</g>
		<g id="shape893-148" v:mID="893" v:groupContext="shape" transform="translate(87.4375,-40.75)">
			<title>Sheet.893</title>
			<desc>RREADY</desc>
			<v:textBlock v:margins="rect(4,0,4,0)"/>
			<v:textRect cx="33.75" cy="232.688" width="67.5" height="13.375"/>
			<rect x="0" y="226" width="67.5" height="13.375" class="st2"/>
			<text x="28.44" y="235.69" class="st3" v:langID="1033"><v:paragraph v:spLine="-1" v:horizAlign="2"/><v:tabList/>RREADY</text>		</g>
		<g id="shape894-151" v:mID="894" v:groupContext="shape" transform="translate(544.591,206.822) rotate(108.435)">
			<title>Sheet.894</title>
			<path d="M0 239.38 L14.23 239.38" class="st5"/>
		</g>
		<g id="shape895-154" v:mID="895" v:groupContext="shape" transform="translate(540.091,206.822) rotate(108.435)">
			<title>Sheet.895</title>
			<path d="M0 239.38 L14.23 239.38" class="st5"/>
		</g>
		<g id="shape896-157" v:mID="896" v:groupContext="shape" transform="translate(535.591,206.822) rotate(108.435)">
			<title>Sheet.896</title>
			<path d="M0 239.38 L14.23 239.38" class="st5"/>
		</g>
		<g id="shape897-160" v:mID="897" v:groupContext="shape" transform="translate(531.091,206.822) rotate(108.435)">
			<title>Sheet.897</title>
			<path d="M0 239.38 L14.23 239.38" class="st5"/>
		</g>
		<g id="shape898-163" v:mID="898" v:groupContext="shape" transform="translate(526.591,206.822) rotate(108.435)">
			<title>Sheet.898</title>
			<path d="M0 239.38 L14.23 239.38" class="st5"/>
		</g>
		<g id="shape899-166" v:mID="899" v:groupContext="shape" transform="translate(522.091,206.822) rotate(108.435)">
			<title>Sheet.899</title>
			<path d="M0 239.38 L14.23 239.38" class="st5"/>
		</g>
		<g id="shape900-169" v:mID="900" v:groupContext="shape" transform="translate(517.591,206.822) rotate(108.435)">
			<title>Sheet.900</title>
			<path d="M0 239.38 L14.23 239.38" class="st5"/>
		</g>
		<g id="shape901-172" v:mID="901" v:groupContext="shape" transform="translate(513.091,206.822) rotate(108.435)">
			<title>Sheet.901</title>
			<path d="M0 239.38 L14.23 239.38" class="st5"/>
		</g>
		<g id="shape902-175" v:mID="902" v:groupContext="shape" transform="translate(508.591,206.822) rotate(108.435)">
			<title>Sheet.902</title>
			<path d="M0 239.38 L14.23 239.38" class="st5"/>
		</g>
		<g id="shape903-178" v:mID="903" v:groupContext="shape" transform="translate(504.091,206.822) rotate(108.435)">
			<title>Sheet.903</title>
			<path d="M0 239.38 L14.23 239.38" class="st5"/>
		</g>
		<g id="shape904-181" v:mID="904" v:groupContext="shape" transform="translate(499.591,206.822) rotate(108.435)">
			<title>Sheet.904</title>
			<path d="M0 239.38 L14.23 239.38" class="st5"/>
		</g>
		<g id="shape905-184" v:mID="905" v:groupContext="shape" transform="translate(495.091,206.822) rotate(108.435)">
			<title>Sheet.905</title>
			<path d="M0 239.38 L14.23 239.38" class="st5"/>
		</g>
		<g id="shape906-187" v:mID="906" v:groupContext="shape" transform="translate(490.591,206.822) rotate(108.435)">
			<title>Sheet.906</title>
			<path d="M0 239.38 L14.23 239.38" class="st5"/>
		</g>
		<g id="shape907-190" v:mID="907" v:groupContext="shape" transform="translate(486.091,206.822) rotate(108.435)">
			<title>Sheet.907</title>
			<path d="M0 239.38 L14.23 239.38" class="st5"/>
		</g>
		<g id="shape908-193" v:mID="908" v:groupContext="shape" transform="translate(481.591,206.822) rotate(108.435)">
			<title>Sheet.908</title>
			<path d="M0 239.38 L14.23 239.38" class="st5"/>
		</g>
		<g id="shape909-196" v:mID="909" v:groupContext="shape" transform="translate(477.091,206.822) rotate(108.435)">
			<title>Sheet.909</title>
			<path d="M0 239.38 L14.23 239.38" class="st5"/>
		</g>
		<g id="shape910-199" v:mID="910" v:groupContext="shape" transform="translate(472.591,206.822) rotate(108.435)">
			<title>Sheet.910</title>
			<path d="M0 239.38 L14.23 239.38" class="st5"/>
		</g>
		<g id="shape911-202" v:mID="911" v:groupContext="shape" transform="translate(468.091,206.822) rotate(108.435)">
			<title>Sheet.911</title>
			<path d="M0 239.38 L14.23 239.38" class="st5"/>
		</g>
		<g id="shape912-205" v:mID="912" v:groupContext="shape" transform="translate(463.591,206.822) rotate(108.435)">
			<title>Sheet.912</title>
			<path d="M0 239.38 L14.23 239.38" class="st5"/>
		</g>
		<g id="shape913-208" v:mID="913" v:groupContext="shape" transform="translate(742.591,206.822) rotate(108.435)">
			<title>Sheet.913</title>
			<path d="M0 239.38 L14.23 239.38" class="st5"/>
		</g>
		<g id="shape914-211" v:mID="914" v:groupContext="shape" transform="translate(738.091,206.822) rotate(108.435)">
			<title>Sheet.914</title>
			<path d="M0 239.38 L14.23 239.38" class="st5"/>
		</g>
		<g id="shape915-214" v:mID="915" v:groupContext="shape" transform="translate(733.591,206.822) rotate(108.435)">
			<title>Sheet.915</title>
			<path d="M0 239.38 L14.23 239.38" class="st5"/>
		</g>
		<g id="shape916-217" v:mID="916" v:groupContext="shape" transform="translate(729.091,206.822) rotate(108.435)">
			<title>Sheet.916</title>
			<path d="M0 239.38 L14.23 239.38" class="st5"/>
		</g>
		<g id="shape917-220" v:mID="917" v:groupContext="shape" transform="translate(724.591,206.822) rotate(108.435)">
			<title>Sheet.917</title>
			<path d="M0 239.38 L14.23 239.38" class="st5"/>
		</g>
		<g id="shape918-223" v:mID="918" v:groupContext="shape" transform="translate(720.091,206.822) rotate(108.435)">
			<title>Sheet.918</title>
			<path d="M0 239.38 L14.23 239.38" class="st5"/>
		</g>
		<g id="shape919-226" v:mID="919" v:groupContext="shape" transform="translate(715.591,206.822) rotate(108.435)">
			<title>Sheet.919</title>
			<path d="M0 239.38 L14.23 239.38" class="st5"/>
		</g>
		<g id="shape920-229" v:mID="920" v:groupContext="shape" transform="translate(711.091,206.822) rotate(108.435)">
			<title>Sheet.920</title>
			<path d="M0 239.38 L14.23 239.38" class="st5"/>
		</g>
		<g id="shape921-232" v:mID="921" v:groupContext="shape" transform="translate(706.591,206.822) rotate(108.435)">
			<title>Sheet.921</title>
			<path d="M0 239.38 L14.23 239.38" class="st5"/>
		</g>
		<g id="shape922-235" v:mID="922" v:groupContext="shape" transform="translate(702.091,206.822) rotate(108.435)">
			<title>Sheet.922</title>
			<path d="M0 239.38 L14.23 239.38" class="st5"/>
		</g>
		<g id="shape923-238" v:mID="923" v:groupContext="shape" transform="translate(697.591,206.822) rotate(108.435)">
			<title>Sheet.923</title>
			<path d="M0 239.38 L14.23 239.38" class="st5"/>
		</g>
		<g id="shape924-241" v:mID="924" v:groupContext="shape" transform="translate(323.125,-94.8125)">
			<title>Sheet.924</title>
			<desc>FFFF0000</desc>
			<v:textBlock v:margins="rect(4,0,4,0)"/>
			<v:textRect cx="69.1875" cy="232.688" width="138.38" height="13.375"/>
			<rect x="0" y="226" width="138.375" height="13.375" class="st2"/>
			<text x="49.86" y="235.19" class="st6" v:langID="1033"><v:paragraph v:spLine="-1" v:horizAlign="1"/><v:tabList/>FFFF0000</text>		</g>
		<g id="shape925-244" v:mID="925" v:groupContext="shape" transform="translate(495.25,-94.75)">
			<title>Sheet.925</title>
			<path d="M0 239.38 L18 239.38" class="st1"/>
		</g>
		<g id="shape926-247" v:mID="926" v:groupContext="shape" transform="translate(160,-13.75)">
			<title>Sheet.926</title>
			<path d="M0 225.88 L157.5 225.88 L162 239.38 L301.5 239.38 L306 225.88 L355.5 225.88" class="st1"/>
		</g>
		<g id="shape927-250" v:mID="927" v:groupContext="shape" transform="translate(160,451.5) scale(1,-1)">
			<title>Sheet.927</title>
			<path d="M0 225.88 L157.5 225.88 L162 239.38 L301.5 239.38 L306 225.88 L355.5 225.88" class="st1"/>
		</g>
		<g id="shape928-253" v:mID="928" v:groupContext="shape" transform="translate(71.125,-13.75)">
			<title>Sheet.928</title>
			<desc>RRESP[1:0]</desc>
			<v:textBlock v:margins="rect(4,0,4,0)"/>
			<v:textRect cx="42.1875" cy="232.688" width="84.38" height="13.375"/>
			<rect x="0" y="226" width="84.375" height="13.375" class="st2"/>
			<text x="31.04" y="235.69" class="st3" v:langID="1033"><v:paragraph v:spLine="-1" v:horizAlign="2"/><v:tabList/>RRESP[1:0]</text>		</g>
		<g id="shape929-256" v:mID="929" v:groupContext="shape" transform="translate(544.591,287.822) rotate(108.435)">
			<title>Sheet.929</title>
			<path d="M0 239.38 L14.23 239.38" class="st5"/>
		</g>
		<g id="shape930-259" v:mID="930" v:groupContext="shape" transform="translate(540.091,287.822) rotate(108.435)">
			<title>Sheet.930</title>
			<path d="M0 239.38 L14.23 239.38" class="st5"/>
		</g>
		<g id="shape931-262" v:mID="931" v:groupContext="shape" transform="translate(535.591,287.822) rotate(108.435)">
			<title>Sheet.931</title>
			<path d="M0 239.38 L14.23 239.38" class="st5"/>
		</g>
		<g id="shape932-265" v:mID="932" v:groupContext="shape" transform="translate(531.091,287.822) rotate(108.435)">
			<title>Sheet.932</title>
			<path d="M0 239.38 L14.23 239.38" class="st5"/>
		</g>
		<g id="shape933-268" v:mID="933" v:groupContext="shape" transform="translate(526.591,287.822) rotate(108.435)">
			<title>Sheet.933</title>
			<path d="M0 239.38 L14.23 239.38" class="st5"/>
		</g>
		<g id="shape934-271" v:mID="934" v:groupContext="shape" transform="translate(522.091,287.822) rotate(108.435)">
			<title>Sheet.934</title>
			<path d="M0 239.38 L14.23 239.38" class="st5"/>
		</g>
		<g id="shape935-274" v:mID="935" v:groupContext="shape" transform="translate(517.591,287.822) rotate(108.435)">
			<title>Sheet.935</title>
			<path d="M0 239.38 L14.23 239.38" class="st5"/>
		</g>
		<g id="shape936-277" v:mID="936" v:groupContext="shape" transform="translate(513.091,287.822) rotate(108.435)">
			<title>Sheet.936</title>
			<path d="M0 239.38 L14.23 239.38" class="st5"/>
		</g>
		<g id="shape937-280" v:mID="937" v:groupContext="shape" transform="translate(508.591,287.822) rotate(108.435)">
			<title>Sheet.937</title>
			<path d="M0 239.38 L14.23 239.38" class="st5"/>
		</g>
		<g id="shape938-283" v:mID="938" v:groupContext="shape" transform="translate(504.091,287.822) rotate(108.435)">
			<title>Sheet.938</title>
			<path d="M0 239.38 L14.23 239.38" class="st5"/>
		</g>
		<g id="shape939-286" v:mID="939" v:groupContext="shape" transform="translate(499.591,287.822) rotate(108.435)">
			<title>Sheet.939</title>
			<path d="M0 239.38 L14.23 239.38" class="st5"/>
		</g>
		<g id="shape940-289" v:mID="940" v:groupContext="shape" transform="translate(495.091,287.822) rotate(108.435)">
			<title>Sheet.940</title>
			<path d="M0 239.38 L14.23 239.38" class="st5"/>
		</g>
		<g id="shape941-292" v:mID="941" v:groupContext="shape" transform="translate(490.591,287.822) rotate(108.435)">
			<title>Sheet.941</title>
			<path d="M0 239.38 L14.23 239.38" class="st5"/>
		</g>
		<g id="shape942-295" v:mID="942" v:groupContext="shape" transform="translate(486.091,287.822) rotate(108.435)">
			<title>Sheet.942</title>
			<path d="M0 239.38 L14.23 239.38" class="st5"/>
		</g>
		<g id="shape943-298" v:mID="943" v:groupContext="shape" transform="translate(481.591,287.822) rotate(108.435)">
			<title>Sheet.943</title>
			<path d="M0 239.38 L14.23 239.38" class="st5"/>
		</g>
		<g id="shape944-301" v:mID="944" v:groupContext="shape" transform="translate(477.091,287.822) rotate(108.435)">
			<title>Sheet.944</title>
			<path d="M0 239.38 L14.23 239.38" class="st5"/>
		</g>
		<g id="shape945-304" v:mID="945" v:groupContext="shape" transform="translate(472.591,287.822) rotate(108.435)">
			<title>Sheet.945</title>
			<path d="M0 239.38 L14.23 239.38" class="st5"/>
		</g>
		<g id="shape946-307" v:mID="946" v:groupContext="shape" transform="translate(468.091,287.822) rotate(108.435)">
			<title>Sheet.946</title>
			<path d="M0 239.38 L14.23 239.38" class="st5"/>
		</g>
		<g id="shape947-310" v:mID="947" v:groupContext="shape" transform="translate(463.591,287.822) rotate(108.435)">
			<title>Sheet.947</title>
			<path d="M0 239.38 L14.23 239.38" class="st5"/>
		</g>
		<g id="shape948-313" v:mID="948" v:groupContext="shape" transform="translate(742.591,287.822) rotate(108.435)">
			<title>Sheet.948</title>
			<path d="M0 239.38 L14.23 239.38" class="st5"/>
		</g>
		<g id="shape949-316" v:mID="949" v:groupContext="shape" transform="translate(738.091,287.822) rotate(108.435)">
			<title>Sheet.949</title>
			<path d="M0 239.38 L14.23 239.38" class="st5"/>
		</g>
		<g id="shape950-319" v:mID="950" v:groupContext="shape" transform="translate(733.591,287.822) rotate(108.435)">
			<title>Sheet.950</title>
			<path d="M0 239.38 L14.23 239.38" class="st5"/>
		</g>
		<g id="shape951-322" v:mID="951" v:groupContext="shape" transform="translate(729.091,287.822) rotate(108.435)">
			<title>Sheet.951</title>
			<path d="M0 239.38 L14.23 239.38" class="st5"/>
		</g>
		<g id="shape952-325" v:mID="952" v:groupContext="shape" transform="translate(724.591,287.822) rotate(108.435)">
			<title>Sheet.952</title>
			<path d="M0 239.38 L14.23 239.38" class="st5"/>
		</g>
		<g id="shape953-328" v:mID="953" v:groupContext="shape" transform="translate(720.091,287.822) rotate(108.435)">
			<title>Sheet.953</title>
			<path d="M0 239.38 L14.23 239.38" class="st5"/>
		</g>
		<g id="shape954-331" v:mID="954" v:groupContext="shape" transform="translate(715.591,287.822) rotate(108.435)">
			<title>Sheet.954</title>
			<path d="M0 239.38 L14.23 239.38" class="st5"/>
		</g>
		<g id="shape955-334" v:mID="955" v:groupContext="shape" transform="translate(711.091,287.822) rotate(108.435)">
			<title>Sheet.955</title>
			<path d="M0 239.38 L14.23 239.38" class="st5"/>
		</g>
		<g id="shape956-337" v:mID="956" v:groupContext="shape" transform="translate(706.591,287.822) rotate(108.435)">
			<title>Sheet.956</title>
			<path d="M0 239.38 L14.23 239.38" class="st5"/>
		</g>
		<g id="shape957-340" v:mID="957" v:groupContext="shape" transform="translate(702.091,287.822) rotate(108.435)">
			<title>Sheet.957</title>
			<path d="M0 239.38 L14.23 239.38" class="st5"/>
		</g>
		<g id="shape958-343" v:mID="958" v:groupContext="shape" transform="translate(697.591,287.822) rotate(108.435)">
			<title>Sheet.958</title>
			<path d="M0 239.38 L14.23 239.38" class="st5"/>
		</g>
		<g id="shape959-346" v:mID="959" v:groupContext="shape" transform="translate(323.125,-13.8125)">
			<title>Sheet.959</title>
			<desc>00</desc>
			<v:textBlock v:margins="rect(4,0,4,0)"/>
			<v:textRect cx="69.1875" cy="232.688" width="138.38" height="13.375"/>
			<rect x="0" y="226" width="138.375" height="13.375" class="st2"/>
			<text x="64.12" y="235.19" class="st6" v:langID="1033"><v:paragraph v:spLine="-1" v:horizAlign="1"/><v:tabList/>00</text>		</g>
		<g id="shape960-349" v:mID="960" v:groupContext="shape" transform="translate(57.625,-144.25)">
			<title>Sheet.960</title>
			<path d="M9 144.88 A4.5 9.44514 -180 0 0 4.5 154.32 L4.5 182.66 A5.83315 10.7129 0 0 1 -0 192.1 A4.56309 8.38038 0 0
						 1 4.5 201.55 L4.5 229.88 A4.08265 9.10473 -180 0 0 9 239.33" class="st7"/>
		</g>
		<g id="shape961-352" v:mID="961" v:groupContext="shape" transform="translate(1.9375,-178)">
			<title>Sheet.961</title>
			<desc>Address Read Channel</desc>
			<v:textBlock v:margins="rect(4,0,4,0)"/>
			<v:textRect cx="29.25" cy="225.938" width="58.5" height="26.875"/>
			<rect x="0" y="212.5" width="58.5" height="26.875" class="st2"/>
			<text x="9.23" y="216.94" class="st8" v:langID="1033"><v:paragraph v:spLine="-1" v:horizAlign="1"/><v:tabList/>Address<v:newlineChar/><tspan
						x="16.67" dy="1em" class="st9">Read<v:newlineChar/></tspan><tspan x="8.96" dy="1em" class="st9">Channel</tspan></text>		</g>
		<g id="shape962-357" v:mID="962" v:groupContext="shape" transform="translate(55.9375,-13.75)">
			<title>Sheet.962</title>
			<path d="M9 144.88 A4.5 9.44514 -180 0 0 4.5 154.32 L4.5 182.66 A5.83315 10.7129 0 0 1 -0 192.1 A4.56309 8.38038 0 0
						 1 4.5 201.55 L4.5 229.88 A4.08265 9.10473 -180 0 0 9 239.33" class="st7"/>
		</g>
		<g id="shape963-360" v:mID="963" v:groupContext="shape" transform="translate(0.25,-47.5)">
			<title>Sheet.963</title>
			<desc>Read Data Channel</desc>
			<v:textBlock v:margins="rect(4,0,4,0)"/>
			<v:textRect cx="29.25" cy="225.938" width="58.5" height="26.875"/>
			<rect x="0" y="212.5" width="58.5" height="26.875" class="st2"/>
			<text x="16.67" y="216.94" class="st8" v:langID="1033"><v:paragraph v:spLine="-1" v:horizAlign="1"/><v:tabList/>Read<v:newlineChar/><tspan
						x="17.46" dy="1em" class="st9">Data<v:newlineChar/></tspan><tspan x="8.96" dy="1em" class="st9">Channel</tspan></text>		</g>
		<g id="shape966-365" v:mID="966" v:groupContext="shape" transform="translate(251.125,-198.312)">
			<title>Sheet.966</title>
			<desc>F0000000</desc>
			<v:textBlock v:margins="rect(4,0,4,0)"/>
			<v:textRect cx="69.1875" cy="232.688" width="138.38" height="13.375"/>
			<rect x="0" y="226" width="138.375" height="13.375" class="st2"/>
			<text x="49.15" y="235.19" class="st6" v:langID="1033"><v:paragraph v:spLine="-1" v:horizAlign="1"/><v:tabList/>F0000000</text>		</g>
		<g id="shape968-368" v:mID="968" v:groupContext="shape" transform="translate(425.5,-225.25)">
			<title>Sheet.968</title>
			<path d="M0 239.38 L36 239.38 L36 225.88 L72 225.88 L72 239.38" class="st1"/>
		</g>
		<g id="shape969-371" v:mID="969" v:groupContext="shape" transform="translate(497.5,-225.25)">
			<title>Sheet.969</title>
			<path d="M0 239.38 L18 239.38" class="st5"/>
		</g>
		<g id="shape970-374" v:mID="970" v:groupContext="shape" transform="translate(459.091,206.822) rotate(108.435)">
			<title>Sheet.970</title>
			<path d="M0 239.38 L14.23 239.38" class="st5"/>
		</g>
		<g id="shape971-377" v:mID="971" v:groupContext="shape" transform="translate(454.591,206.822) rotate(108.435)">
			<title>Sheet.971</title>
			<path d="M0 239.38 L14.23 239.38" class="st5"/>
		</g>
		<g id="shape972-380" v:mID="972" v:groupContext="shape" transform="translate(450.091,206.822) rotate(108.435)">
			<title>Sheet.972</title>
			<path d="M0 239.38 L14.23 239.38" class="st5"/>
		</g>
		<g id="shape973-383" v:mID="973" v:groupContext="shape" transform="translate(445.591,206.822) rotate(108.435)">
			<title>Sheet.973</title>
			<path d="M0 239.38 L14.23 239.38" class="st5"/>
		</g>
		<g id="shape974-386" v:mID="974" v:groupContext="shape" transform="translate(441.091,206.822) rotate(108.435)">
			<title>Sheet.974</title>
			<path d="M0 239.38 L14.23 239.38" class="st5"/>
		</g>
		<g id="shape975-389" v:mID="975" v:groupContext="shape" transform="translate(436.591,206.822) rotate(108.435)">
			<title>Sheet.975</title>
			<path d="M0 239.38 L14.23 239.38" class="st5"/>
		</g>
		<g id="shape976-392" v:mID="976" v:groupContext="shape" transform="translate(432.091,206.822) rotate(108.435)">
			<title>Sheet.976</title>
			<path d="M0 239.38 L14.23 239.38" class="st5"/>
		</g>
		<g id="shape977-395" v:mID="977" v:groupContext="shape" transform="translate(427.591,206.822) rotate(108.435)">
			<title>Sheet.977</title>
			<path d="M0 239.38 L14.23 239.38" class="st5"/>
		</g>
		<g id="shape978-398" v:mID="978" v:groupContext="shape" transform="translate(423.091,206.822) rotate(108.435)">
			<title>Sheet.978</title>
			<path d="M0 239.38 L14.23 239.38" class="st5"/>
		</g>
		<g id="shape979-401" v:mID="979" v:groupContext="shape" transform="translate(418.591,206.822) rotate(108.435)">
			<title>Sheet.979</title>
			<path d="M0 239.38 L14.23 239.38" class="st5"/>
		</g>
		<g id="shape980-404" v:mID="980" v:groupContext="shape" transform="translate(414.091,206.822) rotate(108.435)">
			<title>Sheet.980</title>
			<path d="M0 239.38 L14.23 239.38" class="st5"/>
		</g>
		<g id="shape981-407" v:mID="981" v:groupContext="shape" transform="translate(409.591,206.822) rotate(108.435)">
			<title>Sheet.981</title>
			<path d="M0 239.38 L14.23 239.38" class="st5"/>
		</g>
		<g id="shape982-410" v:mID="982" v:groupContext="shape" transform="translate(405.091,206.822) rotate(108.435)">
			<title>Sheet.982</title>
			<path d="M0 239.38 L14.23 239.38" class="st5"/>
		</g>
		<g id="shape983-413" v:mID="983" v:groupContext="shape" transform="translate(400.591,206.822) rotate(108.435)">
			<title>Sheet.983</title>
			<path d="M0 239.38 L14.23 239.38" class="st5"/>
		</g>
		<g id="shape984-416" v:mID="984" v:groupContext="shape" transform="translate(396.091,206.822) rotate(108.435)">
			<title>Sheet.984</title>
			<path d="M0 239.38 L14.23 239.38" class="st5"/>
		</g>
		<g id="shape985-419" v:mID="985" v:groupContext="shape" transform="translate(391.591,206.822) rotate(108.435)">
			<title>Sheet.985</title>
			<path d="M0 239.38 L14.23 239.38" class="st5"/>
		</g>
		<g id="shape989-422" v:mID="989" v:groupContext="shape" transform="translate(459.091,287.822) rotate(108.435)">
			<title>Sheet.989</title>
			<path d="M0 239.38 L14.23 239.38" class="st5"/>
		</g>
		<g id="shape990-425" v:mID="990" v:groupContext="shape" transform="translate(454.591,287.822) rotate(108.435)">
			<title>Sheet.990</title>
			<path d="M0 239.38 L14.23 239.38" class="st5"/>
		</g>
		<g id="shape991-428" v:mID="991" v:groupContext="shape" transform="translate(450.091,287.822) rotate(108.435)">
			<title>Sheet.991</title>
			<path d="M0 239.38 L14.23 239.38" class="st5"/>
		</g>
		<g id="shape992-431" v:mID="992" v:groupContext="shape" transform="translate(445.591,287.822) rotate(108.435)">
			<title>Sheet.992</title>
			<path d="M0 239.38 L14.23 239.38" class="st5"/>
		</g>
		<g id="shape993-434" v:mID="993" v:groupContext="shape" transform="translate(441.091,287.822) rotate(108.435)">
			<title>Sheet.993</title>
			<path d="M0 239.38 L14.23 239.38" class="st5"/>
		</g>
		<g id="shape994-437" v:mID="994" v:groupContext="shape" transform="translate(436.591,287.822) rotate(108.435)">
			<title>Sheet.994</title>
			<path d="M0 239.38 L14.23 239.38" class="st5"/>
		</g>
		<g id="shape995-440" v:mID="995" v:groupContext="shape" transform="translate(432.091,287.822) rotate(108.435)">
			<title>Sheet.995</title>
			<path d="M0 239.38 L14.23 239.38" class="st5"/>
		</g>
		<g id="shape996-443" v:mID="996" v:groupContext="shape" transform="translate(427.591,287.822) rotate(108.435)">
			<title>Sheet.996</title>
			<path d="M0 239.38 L14.23 239.38" class="st5"/>
		</g>
		<g id="shape997-446" v:mID="997" v:groupContext="shape" transform="translate(423.091,287.822) rotate(108.435)">
			<title>Sheet.997</title>
			<path d="M0 239.38 L14.23 239.38" class="st5"/>
		</g>
		<g id="shape998-449" v:mID="998" v:groupContext="shape" transform="translate(418.591,287.822) rotate(108.435)">
			<title>Sheet.998</title>
			<path d="M0 239.38 L14.23 239.38" class="st5"/>
		</g>
		<g id="shape999-452" v:mID="999" v:groupContext="shape" transform="translate(414.091,287.822) rotate(108.435)">
			<title>Sheet.999</title>
			<path d="M0 239.38 L14.23 239.38" class="st5"/>
		</g>
		<g id="shape1000-455" v:mID="1000" v:groupContext="shape" transform="translate(409.591,287.822) rotate(108.435)">
			<title>Sheet.1000</title>
			<path d="M0 239.38 L14.23 239.38" class="st5"/>
		</g>
		<g id="shape1001-458" v:mID="1001" v:groupContext="shape" transform="translate(405.091,287.822) rotate(108.435)">
			<title>Sheet.1001</title>
			<path d="M0 239.38 L14.23 239.38" class="st5"/>
		</g>
		<g id="shape1002-461" v:mID="1002" v:groupContext="shape" transform="translate(400.591,287.822) rotate(108.435)">
			<title>Sheet.1002</title>
			<path d="M0 239.38 L14.23 239.38" class="st5"/>
		</g>
		<g id="shape1003-464" v:mID="1003" v:groupContext="shape" transform="translate(396.091,287.822) rotate(108.435)">
			<title>Sheet.1003</title>
			<path d="M0 239.38 L14.23 239.38" class="st5"/>
		</g>
		<g id="shape1004-467" v:mID="1004" v:groupContext="shape" transform="translate(391.591,287.822) rotate(108.435)">
			<title>Sheet.1004</title>
			<path d="M0 239.38 L14.23 239.38" class="st5"/>
		</g>
		<g id="shape1005-470" v:mID="1005" v:groupContext="shape" transform="translate(720.091,103.322) rotate(108.435)">
			<title>Sheet.1005</title>
			<path d="M0 239.38 L14.23 239.38" class="st5"/>
		</g>
		<g id="shape1006-473" v:mID="1006" v:groupContext="shape" transform="translate(715.591,103.322) rotate(108.435)">
			<title>Sheet.1006</title>
			<path d="M0 239.38 L14.23 239.38" class="st5"/>
		</g>
		<g id="shape1007-476" v:mID="1007" v:groupContext="shape" transform="translate(711.091,103.322) rotate(108.435)">
			<title>Sheet.1007</title>
			<path d="M0 239.38 L14.23 239.38" class="st5"/>
		</g>
		<g id="shape1008-479" v:mID="1008" v:groupContext="shape" transform="translate(706.591,103.322) rotate(108.435)">
			<title>Sheet.1008</title>
			<path d="M0 239.38 L14.23 239.38" class="st5"/>
		</g>
		<g id="shape1009-482" v:mID="1009" v:groupContext="shape" transform="translate(702.091,103.322) rotate(108.435)">
			<title>Sheet.1009</title>
			<path d="M0 239.38 L14.23 239.38" class="st5"/>
		</g>
		<g id="shape1010-485" v:mID="1010" v:groupContext="shape" transform="translate(697.591,103.322) rotate(108.435)">
			<title>Sheet.1010</title>
			<path d="M0 239.38 L14.23 239.38" class="st5"/>
		</g>
		<g id="shape1011-488" v:mID="1011" v:groupContext="shape" transform="translate(693.091,103.322) rotate(108.435)">
			<title>Sheet.1011</title>
			<path d="M0 239.38 L14.23 239.38" class="st5"/>
		</g>
		<g id="shape1012-491" v:mID="1012" v:groupContext="shape" transform="translate(688.591,103.322) rotate(108.435)">
			<title>Sheet.1012</title>
			<path d="M0 239.38 L14.23 239.38" class="st5"/>
		</g>
		<g id="shape1013-494" v:mID="1013" v:groupContext="shape" transform="translate(684.091,103.322) rotate(108.435)">
			<title>Sheet.1013</title>
			<path d="M0 239.38 L14.23 239.38" class="st5"/>
		</g>
		<g id="shape1014-497" v:mID="1014" v:groupContext="shape" transform="translate(679.591,103.322) rotate(108.435)">
			<title>Sheet.1014</title>
			<path d="M0 239.38 L14.23 239.38" class="st5"/>
		</g>
		<g id="shape1015-500" v:mID="1015" v:groupContext="shape" transform="translate(675.091,103.322) rotate(108.435)">
			<title>Sheet.1015</title>
			<path d="M0 239.38 L14.23 239.38" class="st5"/>
		</g>
		<g id="shape1017-503" v:mID="1017" v:groupContext="shape" transform="translate(742.591,103.322) rotate(108.435)">
			<title>Sheet.1017</title>
			<path d="M0 239.38 L14.23 239.38" class="st5"/>
		</g>
		<g id="shape1018-506" v:mID="1018" v:groupContext="shape" transform="translate(738.091,103.322) rotate(108.435)">
			<title>Sheet.1018</title>
			<path d="M0 239.38 L14.23 239.38" class="st5"/>
		</g>
		<g id="shape1019-509" v:mID="1019" v:groupContext="shape" transform="translate(733.591,103.322) rotate(108.435)">
			<title>Sheet.1019</title>
			<path d="M0 239.38 L14.23 239.38" class="st5"/>
		</g>
		<g id="shape1020-512" v:mID="1020" v:groupContext="shape" transform="translate(729.091,103.322) rotate(108.435)">
			<title>Sheet.1020</title>
			<path d="M0 239.38 L14.23 239.38" class="st5"/>
		</g>
		<g id="shape1021-515" v:mID="1021" v:groupContext="shape" transform="translate(724.591,103.322) rotate(108.435)">
			<title>Sheet.1021</title>
			<path d="M0 239.38 L14.23 239.38" class="st5"/>
		</g>
	</g>
</svg>
